<?xml version="1.0" encoding="utf-8"?>
<!-- Generator: Adobe Illustrator 23.0.0, SVG Export Plug-In . SVG Version: 6.00 Build 0)  -->
<svg version="1.1" id="Слой_1" xmlns="http://www.w3.org/2000/svg" xmlns:xlink="http://www.w3.org/1999/xlink" x="0px" y="0px"
	 viewBox="0 0 414.39 414.39" style="enable-background:new 0 0 414.39 414.39;" xml:space="preserve" width="36" height="36">
<style type="text/css">
	.st0{fill:#4C75A2;}
</style>
<g>
	<path class="st0" d="M206.97,414.39c-47.4,0-94.81,0-142.21,0c-31.67,0-57.46-21.13-63.66-52.17C0.32,358.26,0,354.25,0,350.21
		C0.01,254.9-0.01,159.59,0.02,64.28C0.02,32.89,21.54,6.96,52.42,1.03C56.24,0.3,60.11,0,64.01,0.01
		c95.74,0.02,191.48-0.05,287.23,0.06c31.74,0.04,58.67,24.15,62.63,55.61c0.38,2.99,0.53,6.01,0.53,9.04
		c-0.02,94.95-0.01,189.9-0.02,284.85c0,27.83-15.94,51.01-41.95,60.93c-7.11,2.71-14.54,3.9-22.16,3.9
		C302.5,414.38,254.74,414.39,206.97,414.39z M230.48,171.2c0.08-1.84,0.21-3.56,0.23-5.28c0.1-7.69,0.93-15.36,0.23-23.07
		c-0.64-6.97-3.76-10.5-10.52-12.07c-9.08-2.1-18.29-1.69-27.48-1.74c-7.27-0.04-14.52,0.18-21.66,1.77
		c-4.63,1.03-8.67,3.06-11.46,7.07c-1.38,1.98-1.17,2.45,1.12,2.92c6.62,1.35,11.86,4.35,13.73,11.42c0.7,2.64,1.24,5.32,1.44,8.05
		c0.67,9.04,0.87,18.1,0.41,27.16c-0.24,4.81-0.74,9.61-2.17,14.24c-2.27,7.3-6.89,8.64-12.75,3.73c-0.83-0.69-1.58-1.46-2.35-2.23
		c-2.25-2.24-4.19-4.74-6.02-7.32c-11.36-16.01-20.56-33.21-28.03-51.35c-2.35-5.71-6.33-8.41-12.5-8.38
		c-4.82,0.02-9.64,0.14-14.45,0.17c-8.2,0.06-16.4-0.03-24.6,0.17c-8.03,0.19-10.47,4.13-7.24,11.41
		c10.22,23.01,21.7,45.36,34.86,66.83c9.3,15.17,19.32,29.81,31.62,42.76c14.57,15.34,31.97,25.81,52.69,30.66
		c11.73,2.75,23.62,2.22,35.43,1.76c6.63-0.26,9.2-3.54,9.65-9.5c0.15-2.01,0.15-4.03,0.32-6.03c0.45-5.4,1.33-10.7,3.91-15.56
		c3.33-6.28,8.47-7.54,14.28-3.49c3.45,2.4,6.29,5.47,9.09,8.56c4.78,5.27,9.24,10.84,14.38,15.79
		c7.59,7.31,16.15,11.72,27.22,11.04c11.62-0.71,23.3-0.43,34.95-0.59c2.7-0.04,5.27-0.64,7.74-1.69c5.57-2.37,7.29-6.43,5.02-12.03
		c-1.3-3.21-3.18-6.12-5.18-8.93c-6.5-9.12-14.32-17.06-22.39-24.77c-4.84-4.62-9.98-8.92-14.31-14.05
		c-4.31-5.11-4.68-9.15-1.48-15.03c1.79-3.3,4.04-6.29,6.29-9.27c9.59-12.75,19.75-25.09,28.26-38.63
		c3.75-5.96,7.43-11.99,9.22-18.9c1.63-6.26-0.6-9.5-7-10.3c-1.35-0.17-2.73-0.18-4.09-0.17c-2.8,0.01-5.61,0.09-8.41,0.12
		c-12.37,0.1-24.74,0.26-37.11,0.24c-6.01-0.01-8.3,1.31-10.53,6.84c-1.08,2.66-2.15,5.33-3.29,7.96
		c-7.19,16.71-16.05,32.45-27.25,46.82c-2.35,3.01-4.91,5.85-8.1,8.01c-3.98,2.7-6.87,2.02-9.27-2.16c-1.61-2.8-2.21-5.91-2.39-9.09
		C230.05,187.05,230.69,179.07,230.48,171.2z"/>
</g>
</svg>
