<svg xmlns="http://www.w3.org/2000/svg">
  <symbol id= "vk" viewBox="0 0 30 15.76">
    <g>
      <path d="M23.94,15.76c-0.39,0-1.17-0.08-2.08-0.63c-0.64-0.39-1.22-0.97-1.78-1.53c-0.44-0.44-1.17-1.18-1.45-1.18
        c-0.27,0.08-0.48,0.92-0.48,1.57c0,0.11,0,0.77-0.47,1.21c-0.42,0.4-1.09,0.49-1.22,0.5l-1.93,0.01c-0.97,0-4.36-0.22-7.43-3.02
        C3.44,9.33,0.28,2.89,0.15,2.61C-0.05,2.15-0.1,1.55,0.3,1.13c0.39-0.41,1.08-0.47,1.36-0.48l4.08-0.02l0.11,0.01
        c0.09,0.01,0.57,0.1,0.96,0.35C7.2,1.23,7.4,1.64,7.44,1.72C7.45,1.74,8.09,3.15,8.92,4.4c1.31,1.99,1.9,2.45,2.1,2.56
        c0.19-0.42,0.28-1.7,0.19-2.87c0-0.49-0.1-1.1-0.25-1.28c-0.11-0.13-0.43-0.25-0.78-0.29L9.45,1.83c-0.1-0.66,0.64-1.23,1.15-1.45
        C11.34,0.07,12.39,0,13.75,0l0.71,0.01c1.24,0.01,1.62,0.08,2.15,0.19c1.7,0.36,1.64,1.73,1.57,3.31c-0.02,0.46-0.05,1-0.05,1.62
        c0,0.15,0,0.31-0.01,0.48c-0.01,0.38-0.03,1.04,0.09,1.3c0.22-0.15,0.85-0.67,2.07-2.48c0.78-1.16,1.4-2.54,1.52-2.8l0,0
        c0.18-0.43,0.61-0.94,1.61-0.95l4.27-0.02c0.01,0,0.17-0.02,0.38-0.02c0.98,0,1.6,0.29,1.83,0.85c0.27,0.65,0.17,1.66-2.35,4.61
        c-0.37,0.43-0.7,0.8-0.98,1.13c-0.6,0.68-1.22,1.38-1.24,1.59c0.05,0.17,0.66,0.67,1.25,1.15c1.53,1.25,2.53,2.26,3.03,3.07
        c0.52,0.76,0.43,1.33,0.26,1.68c-0.42,0.86-1.64,0.97-1.88,0.99l-3.79,0.05C24.15,15.75,24.06,15.76,23.94,15.76z M18.63,10.92
        c0.9,0,1.68,0.79,2.51,1.62c0.5,0.5,1.01,1.02,1.5,1.31c0.73,0.44,1.32,0.42,1.4,0.41l0.1-0.01l3.81-0.05
        c0.17-0.01,0.41-0.07,0.54-0.14c-0.02-0.04-0.05-0.09-0.1-0.17c-0.45-0.72-1.39-1.66-2.69-2.72c-1.18-0.96-1.8-1.47-1.86-2.24
        c-0.07-0.81,0.49-1.44,1.61-2.7c0.28-0.32,0.6-0.68,0.97-1.11c1.56-1.82,1.96-2.64,2.06-2.96c-0.17-0.03-0.65-0.02-0.68-0.02
        l-4.36,0.03c-0.19,0-0.25,0.03-0.25,0.04C23,2.63,22.36,4.03,21.53,5.26c-1.9,2.82-2.78,3.2-3.41,3.2c-0.2,0-0.4-0.05-0.57-0.15
        c-1-0.57-0.96-1.83-0.93-2.76c0-0.15,0.01-0.3,0.01-0.43c0-0.65,0.02-1.21,0.05-1.69c0.08-1.68,0.02-1.69-0.38-1.78
        c-0.41-0.09-0.7-0.15-1.86-0.16L13.75,1.5c-0.62,0-1.34,0.01-1.91,0.1c0.09,0.07,0.18,0.16,0.26,0.25c0.59,0.7,0.6,1.95,0.6,2.19
        c0.13,1.65,0.06,3.8-1.02,4.31c-0.19,0.09-0.39,0.14-0.6,0.14c-0.93,0-1.85-0.89-3.43-3.27C6.77,3.87,6.11,2.4,6.08,2.34
        C6.07,2.32,6.02,2.26,6,2.24c-0.08-0.05-0.23-0.1-0.32-0.12l-4,0.02c-0.02,0-0.05,0-0.07,0.01c0.59,1.19,3.43,6.59,6.52,9.42
        c2.74,2.5,5.83,2.63,6.42,2.63l1.85,0c0.05-0.01,0.22-0.06,0.27-0.1c-0.02,0.02-0.01-0.05-0.01-0.1c0-0.26,0.01-2.59,1.58-3.03
        C18.36,10.94,18.5,10.92,18.63,10.92z"/>
      </g>
    </symbol>

    <symbol id="inst" viewBox="0 0 16 16">
      <g>
        <path d="M11.83,1.04c1.73,0,3.13,1.41,3.13,3.13v7.66c0,1.73-1.4,3.13-3.13,3.13H4.17c-1.73,0-3.13-1.41-3.13-3.13V4.18
          c0-1.73,1.4-3.13,3.13-3.13L11.83,1.04 M11.83,0H4.17C1.88,0,0,1.88,0,4.18v7.66c0,2.3,1.88,4.18,4.17,4.18h7.65
          c2.29,0,4.17-1.88,4.17-4.18V4.18C16,1.88,14.12,0,11.83,0L11.83,0z"/>
          <path class="st0" d="M8,4.93c1.7,0,3.08,1.38,3.08,3.08c0,1.7-1.38,3.08-3.08,3.08c-1.7,0-3.08-1.38-3.08-3.08
            C4.92,6.31,6.3,4.93,8,4.93 M8,3.88c-2.28,0-4.13,1.85-4.13,4.13S5.72,12.13,8,12.13s4.12-1.85,4.12-4.13S10.28,3.88,8,3.88L8,3.88z
            "/>
            <circle cx="12.27" cy="3.74" r="0.93"/>
          </g>
        </symbol>

        <symbol id="fb" viewBox="0 0 10 19">
          <g>
            <path d="M7.05,19H2.01v-8.84H0V5.8h1.94C1.8,3.82,2.17,2.38,3.07,1.39C3.84,0.55,4.98,0.08,6.46,0L10,0v4.21H7.22
              C7.1,4.43,7.04,4.96,7.04,5.8h2.94v4.37H7.05V19z M3.12,17.97h2.82V9.14h2.93V6.83H5.94l-0.01-0.5c-0.03-1.4,0-2.59,0.74-3.05
              l0.14-0.09h2.07V1.03h-2.4c-1.15,0.06-2.01,0.4-2.58,1.02C3.15,2.89,2.87,4.31,3.1,6.26l0.07,0.57H1.11v2.31h2.01V17.97z"/>
            </g>
          </symbol>

          <symbol id="logo" viewBox="0 0 100.5 18.09">
           <g>
            <path d="M1.22,16.58C0.41,15.57,0,14.12,0,12.22V5.88c0-1.94,0.4-3.4,1.21-4.4C2.02,0.5,3.4,0,5.36,0
              c1.87,0,3.19,0.44,3.97,1.32c0.78,0.88,1.17,2.13,1.17,3.76V6.6H6.64V4.84c0-0.68-0.07-1.2-0.22-1.56
              c-0.15-0.36-0.5-0.54-1.06-0.54s-0.93,0.19-1.1,0.58c-0.18,0.38-0.26,0.92-0.26,1.6v8.27c0,0.69,0.09,1.23,0.28,1.6
              c0.18,0.37,0.55,0.55,1.09,0.55c0.54,0,0.89-0.18,1.05-0.55c0.15-0.37,0.23-0.9,0.23-1.6v-1.85h3.86v1.52
              c0,1.65-0.39,2.93-1.17,3.85c-0.78,0.92-2.1,1.38-3.97,1.38C3.42,18.09,2.04,17.58,1.22,16.58z"/>
              <path d="M15.2,0.24h4.5l3.33,17.59h-3.64l-0.6-3.71h-2.62l-0.62,3.71h-3.73L15.2,0.24z M18.41,11.79l-0.95-6.86
                l-0.95,6.86H18.41z"/>
                <path d="M25.75,3.13h-2.69V0.24h9.33v2.89h-2.67v14.7h-3.97V3.13z"/>
                <path d="M39.53,0.24h6.92v1.82h-4.43v5.82h3.59v1.74h-3.59v6.45h4.48v1.76h-6.97V0.24z"/>
                <path d="M48.49,0.24h1.7l5.07,11.68V0.24h2.07v17.59h-1.59L50.6,5.82v12.01h-2.12V0.24z"/>
                <path d="M59.81,0.24h6.92v1.82H62.3v5.82h3.59v1.74H62.3v6.45h4.48v1.76h-6.97V0.24z"/>
                <path d="M68.77,0.24h3.59c1.81,0,3.14,0.36,3.98,1.1s1.27,1.92,1.27,3.57c0,2.26-0.74,3.62-2.21,4.1l2.54,8.82h-2.4
                  L73.2,9.57h-1.94v8.25h-2.49V0.24z M72.21,7.82c1.07,0,1.84-0.21,2.3-0.63c0.46-0.42,0.7-1.18,0.7-2.28c0-0.72-0.08-1.29-0.24-1.7
                  s-0.45-0.72-0.86-0.91C73.69,2.1,73.11,2,72.36,2h-1.1v5.82H72.21z"/>
                  <path d="M80.81,16.53c-0.72-1.01-1.08-2.5-1.08-4.48V6.17c0-1.36,0.14-2.48,0.43-3.35c0.29-0.88,0.78-1.55,1.48-2.02
                    c0.7-0.47,1.66-0.71,2.88-0.71c1.65,0,2.83,0.41,3.56,1.24c0.73,0.82,1.09,2.12,1.09,3.89v0.65h-2.34V5.32
                    c0-0.84-0.05-1.49-0.15-1.94c-0.1-0.46-0.32-0.8-0.65-1.03C85.69,2.11,85.21,2,84.56,2c-0.69,0-1.2,0.16-1.54,0.47
                    c-0.34,0.31-0.55,0.73-0.65,1.25c-0.1,0.52-0.14,1.22-0.14,2.09v6.51c0,1.35,0.17,2.31,0.5,2.9c0.33,0.59,0.97,0.88,1.91,0.88
                    c0.93,0,1.56-0.32,1.91-0.96c0.34-0.64,0.52-1.66,0.52-3.06v-1.22h-2.27V9.12h4.52v8.71h-1.56l-0.24-2.02
                    c-0.56,1.49-1.62,2.24-3.17,2.24C82.7,18.04,81.53,17.54,80.81,16.53z"/>
                    <path d="M94.28,11.62L90.42,0.24h2.32l2.73,8.49l2.69-8.49h2.34l-3.84,11.38v6.21h-2.38V11.62z"/>
                  </g>
                </symbol>

                <symbol id="copyright" viewBox="0 0 26.94 34.09">
                  <path d="M13.62,0.02L13.47,0L0,1.41v24.66l13.47,8.02L26.9,26.1l0.04-0.02V1.41L13.62,0.02z M25.02,12.13L13.49,5.33l0-0.1
                    l-0.09,0.05l-0.09-0.06v0.11L1.92,12.12V3.15l11.55-1.21l11.55,1.21L25.02,12.13L25.02,12.13z M13.41,6.79l11.52,6.71l-4.48,2.64
                    l-7.09-4.22l-0.01,1.42l5.9,3.51l-0.86,0.51l-5.03-2.99l-0.01,1.41l3.83,2.27l-0.78,0.52l-3.03-1.79l-0.01,1.41l1.85,1.09l-1.8,1.08
                    L2.03,13.62L13.41,6.79z M1.92,15.13l11.41,6.79l0.02,1.04l-7.94-4.73L5.4,19.65l7.98,4.79l0.02,1.08l-7.97-4.74L5.41,22.2
                    l8.02,4.82l0.05,0.02l8.14-4.87l-0.01-5.18l3.42-2.04v10.02l-11.55,6.87L1.92,24.98V15.13z"/>
                  </symbol>

                  <symbol id="email" viewBox="0 0 17 13">
                    <path d="M15.6,11.6H1.4V5.8H0V13h17V5.8h-1.4V11.6z M0,0v2.3l8.5,7.1L17,2.3V0H0z M15.6,1.6L8.5,7.5L1.4,1.6V1.4h14.2L15.6,1.6z"/>
                  </symbol>

                  <symbol id="phone" viewBox="0 0 20 20">
                    <path d="M17.9,9.4H9.4v1.2h8.5l-2.1,2.1l0.9,0.9l3.1-3.1c0.2-0.2,0.2-0.6,0-0.9l-3.1-3.1l-0.9,0.9L17.9,9.4z"/>
                    <path d="M8.1,19.4v-6.2c0-0.3-0.3-0.6-0.6-0.6H4.4l0,0H3.1l0,0c0,0.7,0.6,1.2,1.2,1.2h2.5v5H3.1c-1,0.1-1.8-0.7-1.9-1.7
                      c0-0.1,0-0.1,0-0.2V3.1c0-1,0.8-1.8,1.7-1.8c0.1,0,0.1,0,0.2,0h3.7v5H4.4c-0.7,0-1.2,0.6-1.2,1.2h4.4c0.3,0,0.6-0.3,0.6-0.6V0.6
                      C8.1,0.3,7.8,0,7.5,0H3.1C1.5-0.1,0.1,1.2,0,2.9C0,3,0,3.1,0,3.1v13.7c-0.1,1.7,1.2,3.1,2.9,3.1c0.1,0,0.2,0,0.2,0h4.4
                      C7.8,20,8.1,19.7,8.1,19.4z"/>
                    </symbol>
                  </svg>
