<?xml version="1.0" encoding="utf-8"?>
<!-- Generator: Adobe Illustrator 23.0.0, SVG Export Plug-In . SVG Version: 6.00 Build 0)  -->
<svg version="1.1" id="svg3348" xmlns="http://www.w3.org/2000/svg" xmlns:xlink="http://www.w3.org/1999/xlink" x="0px" y="0px" width="19" height="13"
	 viewBox="0 0 447.8 319.71" style="enable-background:new 0 0 447.8 319.71;" xml:space="preserve">
<style type="text/css">
	.st0{fill:#FFFFFF;}
</style>
<path id="path3358" class="st0" d="M22.22,317.9c-2.9-1-5.6-2.16-6-2.58c-0.4-0.42,2.27-3.52,5.95-6.9
	c3.67-3.38,36.41-34.27,72.76-68.64s66.45-62.5,66.91-62.5s10.46,9.17,22.24,20.38c25.13,23.91,27.82,25.62,40.42,25.62
	c12.3,0,15.2-1.84,40-25.45c11.55-11,21.23-20,21.51-20.02c0.8-0.04,143.86,136.35,144.19,137.47c0.16,0.55-1.95,1.77-4.7,2.71
	c-4.65,1.59-18.92,1.71-201.5,1.72C36.53,319.72,27.24,319.64,22.22,317.9L22.22,317.9z M0.61,293.66
	C-0.21,289.55-0.2,29.98,0.62,25.87c0.35-1.74,0.96-3.03,1.35-2.88c0.4,0.16,2.7,2.64,5.12,5.52c2.42,2.88,33.42,32.74,68.9,66.36
	s65.29,61.89,66.26,62.81c1.67,1.59-1.73,5-63,63.28C7.71,289.01,4.25,292.39,3.42,294.99C2.55,297.73,1.31,297.14,0.61,293.66z
	 M441.95,292.27c-1.91-2.49-33.43-32.97-70.06-67.75s-66.65-63.68-66.73-64.23c-0.08-0.55,30.12-29.77,67.09-64.94
	c62.46-59.4,71.89-68.68,73.03-71.87c0.24-0.66,0.83-0.82,1.31-0.36c0.99,0.93,1.84,262.64,0.87,269.42
	c-0.33,2.34-0.93,4.25-1.33,4.25S443.86,294.75,441.95,292.27z M215.69,190.23c-5.47-1.75,3.82,6.85-118.7-109.89
	C53.26,38.68,17.55,4.29,17.63,3.94c0.08-0.36,2.33-1.42,5-2.36c4.53-1.6,18.23-1.7,202.86-1.5c190.53,0.2,198.16,0.28,202.25,2.07
	c2.34,1.02,4.25,2.16,4.25,2.52c0,1.59-190.66,180.88-195.11,183.47C230.83,191.65,222.66,192.46,215.69,190.23L215.69,190.23z"/>
</svg>
