<?xml version="1.0" encoding="utf-8"?>
<!-- Generator: Adobe Illustrator 23.0.0, SVG Export Plug-In . SVG Version: 6.00 Build 0)  -->
<svg version="1.1" id="Слой_1" xmlns="http://www.w3.org/2000/svg" xmlns:xlink="http://www.w3.org/1999/xlink" x="0px" y="0px" width="21" height="21"
	 viewBox="0 0 21 21" style="enable-background:new 0 0 21 21;" xml:space="preserve">
<style type="text/css">
	.st0{fill:#FFFFFF;}
</style>
<g>
	<path class="st0" d="M16,2c1.65,0,3,1.35,3,3v11c0,1.65-1.35,3-3,3H5c-1.65,0-3-1.35-3-3V5c0-1.65,1.35-3,3-3H16 M16,0H5
		C2.24,0,0,2.24,0,5v11c0,2.76,2.24,5,5,5h11c2.76,0,5-2.24,5-5V5C21,2.24,18.76,0,16,0L16,0z"/>
</g>
<g>
	<path class="st0" d="M10.5,14.5c-0.23,0-0.47-0.1-0.64-0.29L4.27,8.18c-0.36-0.38-0.36-1.01,0-1.39c0.36-0.38,0.93-0.38,1.29,0
		l4.95,5.34l4.95-5.34c0.36-0.38,0.93-0.38,1.29,0c0.36,0.38,0.36,1.01,0,1.39l-5.59,6.03C10.97,14.4,10.73,14.5,10.5,14.5z"/>
</g>
</svg>
