<?xml version="1.0" encoding="utf-8"?>
<!-- Generator: Adobe Illustrator 23.0.0, SVG Export Plug-In . SVG Version: 6.00 Build 0)  -->
<svg version="1.1" id="Слой_1" xmlns="http://www.w3.org/2000/svg" xmlns:xlink="http://www.w3.org/1999/xlink" x="0px" y="0px"
	 viewBox="0 0 99.36 54.28" style="enable-background:new 0 0 99.36 54.28;" xml:space="preserve" width="12" height="7">
<style type="text/css">
	.st0{fill:#FFFFFF;}
</style>
<g>
	<path class="st0" d="M99.26,5.64c-0.43,1.4-1.35,2.44-2.37,3.45C82.42,23.55,67.95,38.02,53.49,52.48
		c-1.94,1.94-4.17,2.37-6.2,1.16c-0.49-0.29-0.93-0.69-1.34-1.1C31.24,37.85,16.55,23.15,1.85,8.47C0.42,7.04-0.3,5.42,0.33,3.4
		c0.53-1.69,1.62-2.85,3.38-3.26C4.27,0,4.86-0.01,5.44-0.01C34.93-0.02,64.43,0,93.92-0.04c2.86,0,4.48,1.38,5.34,3.93
		C99.26,4.48,99.26,5.06,99.26,5.64z"/>
</g>
</svg>
