<?xml version="1.0" encoding="utf-8"?>
<!-- Generator: Adobe Illustrator 23.0.0, SVG Export Plug-In . SVG Version: 6.00 Build 0)  -->
<svg version="1.1" id="svg3434" xmlns="http://www.w3.org/2000/svg" xmlns:xlink="http://www.w3.org/1999/xlink" x="0px" y="0px"
	 viewBox="0 0 205.62 162.03" style="enable-background:new 0 0 205.62 162.03;" xml:space="preserve" width="31" height="25">
<style type="text/css">
	.st0{fill:#FFFFFF;}
</style>
<path id="path3444" class="st0" d="M165.79,154.38l-12.03-7.62l-5.79,1.47c-24.36,6.19-54.2,2.62-75.89-9.08
	c-15.44-8.33-27.36-21.34-31.46-34.35c-9.93-31.5,14.58-62.38,57.31-72.2c10.22-2.35,30.66-2.93,41.42-1.18
	c21.81,3.55,39.48,12.21,51.76,25.37c16.04,17.17,18.97,38.84,7.81,57.67c-3.17,5.35-10.53,13.52-15.99,17.77l-3.08,2.39
	l-0.53,13.71c-0.29,7.54-0.75,13.7-1.01,13.69C178.04,162.01,172.41,158.58,165.79,154.38z M1.72,114.74
	c0.22-0.77,1.41-7.17,2.65-14.23L6.61,87.7l-2.23-4.98c-15.9-35.44,12.98-72.9,62.83-81.51c9.41-1.62,28.1-1.62,38.16,0.01
	c13.78,2.23,28.94,8.09,39.51,15.25c4.96,3.37,15.34,12.69,15.34,13.78c0,0.35-2.2-0.04-4.88-0.88
	c-10.65-3.32-18.79-4.37-33.59-4.36c-15.96,0.02-24.8,1.43-38.22,6.12C44.2,44.88,24.34,77.89,36.52,109.28
	c1.3,3.36,2.12,6.11,1.81,6.11c-0.31,0-3.31-1.71-6.67-3.8l-6.1-3.8l-12.12,4.19C3.52,115.39,1.39,115.89,1.72,114.74L1.72,114.74z"
	/>
</svg>
