<?xml version="1.0" encoding="utf-8"?>
<!-- Generator: Adobe Illustrator 23.0.0, SVG Export Plug-In . SVG Version: 6.00 Build 0)  -->
<svg version="1.1" id="svg3336" xmlns="http://www.w3.org/2000/svg" xmlns:xlink="http://www.w3.org/1999/xlink" x="0px" y="0px"
	 viewBox="0 0 185.22 185.01" style="enable-background:new 0 0 185.22 185.01;" xml:space="preserve" width="25" height="25">
<style type="text/css">
	.st0{fill:#FFFFFF;}
</style>
<path id="path3346" class="st0" d="M74.37,183.92c-34.53-7.28-61.2-31.95-71.67-66.27C0.28,109.7,0.02,107.33,0,92.86
	c-0.01-13.42,0.34-17.29,2.18-24C6.76,52.2,15.78,36.98,28,25.3C39.43,14.37,51.26,7.52,67.07,2.69C75.09,0.24,77.3,0,92.36,0
	s17.27,0.23,25.29,2.69c32.58,9.96,56,33.82,64.95,66.17c2.53,9.14,3.43,28.07,1.81,38.11c-5.91,36.63-32.73,66.09-69.05,75.84
	C106.63,185.16,83.25,185.79,74.37,183.92L74.37,183.92z M121.93,159.24c2.44-0.62,4.44-1.32,4.44-1.57s-5.25-7.41-11.66-15.92
	c-8.07-10.7-11.98-15.15-12.7-14.43c-1.86,1.86-5.5,1.1-8.87-1.86c-7.84-6.89-23.36-32.45-27.07-44.6
	c-2.95-9.66-2.96-10.36-0.24-12.88l2.51-2.33l-6.82-15.94c-9.35-21.86-8-20.33-13.06-14.84c-2.35,2.54-5.69,7.63-7.43,11.31
	c-2.93,6.19-3.16,7.45-3.15,17.18c0.02,12.38,2.36,20.56,11.03,38.5c14.83,30.68,34.13,52.27,51.46,57.56
	C104.22,160.6,116.97,160.49,121.93,159.24z M135.29,153.77c4.56-3.83,4.12-7.07-2.17-16.2c-7.94-11.51-15.41-19.22-18.61-19.19
	c-3.64,0.04-9.72,5.14-8.53,7.17c3.88,6.61,23.15,30.81,24.54,30.81C131.45,156.36,133.6,155.19,135.29,153.77z M144.89,114.97
	c1.59-1.16,1.97-2.99,2.29-11.25c1-25.19-10.69-47.63-31.97-61.39c-3.28-2.12-7.97-4.62-10.42-5.56c-4.19-1.6-4.56-1.6-6.33,0
	c-3,2.71-1.48,5.44,4.51,8.09c23.2,10.26,37.71,34.13,36.11,59.39c-0.44,6.96-0.25,8.94,1.02,10.36
	C142,116.72,142.45,116.75,144.89,114.97L144.89,114.97z M132.19,102.74c0.92-20.14-10.21-40-27.58-49.2
	c-7.59-4.02-10.73-3.96-10.73,0.22c0,2.49,0.77,3.31,5.5,5.84c15.62,8.34,25,24.21,25,42.3c0,6.92,0.3,8.53,1.75,9.35
	c1.22,0.69,2.35,0.6,3.75-0.32C131.49,109.88,131.93,108.31,132.19,102.74L132.19,102.74z M115.8,107.04
	c1.53-1.12,1.75-2.46,1.42-8.75c-0.68-13.03-8.95-26.37-19.77-31.89c-4.6-2.35-8.08-1.52-8.08,1.92c0,1.99,2.48,5.04,4.09,5.04
	c0.52,0,3.01,1.89,5.52,4.21c6.25,5.76,9.42,12.38,10.29,21.52C110.1,107.8,111.85,109.92,115.8,107.04L115.8,107.04z M77.28,63.56
	c5.45-2.72,5.83-4.13,3.24-12.16c-3.05-9.47-8.83-22.03-11.41-24.79c-2.48-2.66-5.65-2.86-10.05-0.62
	c-1.76,0.89-3.37,1.77-3.57,1.95s3.13,8.67,7.41,18.87c5.52,13.17,8.24,18.54,9.37,18.5C73.16,65.28,75.4,64.5,77.28,63.56z"/>
</svg>
