<?xml version="1.0" encoding="utf-8"?>
<!-- Generator: Adobe Illustrator 23.0.0, SVG Export Plug-In . SVG Version: 6.00 Build 0)  -->
<svg version="1.1" id="svg3336" xmlns="http://www.w3.org/2000/svg" xmlns:xlink="http://www.w3.org/1999/xlink" x="0px" y="0px" width="19" height="13"
	 viewBox="0 0 214 151.82" style="enable-background:new 0 0 214 151.82;" xml:space="preserve">
<style type="text/css">
	.st0{fill:#FFFFFF;}
</style>
<path id="path3346" class="st0" d="M24,137.5c0-22.44,1.62-26.25,25.53-60.02L65,55.63v-9.41v-9.41h12.5H90v7v7h17h17v-7v-7h12.5
	H149l0.01,9.25l0.01,9.25l16.28,22.74c19.97,27.9,22.4,31.87,23.69,38.66c0.56,2.95,1.02,12.06,1.02,20.23l0,14.86h-83H24V137.5z
	 M89.81,100.57l-0.31-4.25h-7h-7l-0.31,4.25l-0.31,4.25h7.61h7.61L89.81,100.57L89.81,100.57z M113.81,100.57l-0.31-4.25h-7h-7
	l-0.31,4.25l-0.31,4.25h7.61h7.61L113.81,100.57L113.81,100.57z M137,100.28v-4.55l-6.75,0.3l-6.75,0.3l-0.31,4.25l-0.31,4.25h7.06
	H137V100.28z M89.81,85.57l-0.31-4.25h-7h-7l-0.31,4.25l-0.31,4.25h7.61h7.61L89.81,85.57L89.81,85.57z M113.81,85.57l-0.31-4.25h-7
	h-7l-0.31,4.25l-0.31,4.25h7.61h7.61L113.81,85.57L113.81,85.57z M137,85.28v-4.55l-6.75,0.3l-6.75,0.3l-0.31,4.25l-0.31,4.25h7.06
	H137V85.28z M89.81,71.07l0.31-4.25h-7.56H75v3.83c0,2.11,0.32,4.15,0.71,4.54c0.39,0.39,3.65,0.58,7.25,0.42l6.54-0.29L89.81,71.07
	z M113.81,71.07l0.31-4.25h-7.56H99v3.83c0,2.11,0.32,4.15,0.71,4.54c0.39,0.39,3.65,0.58,7.25,0.42l6.54-0.29L113.81,71.07z
	 M137.16,71.28l0.35-4.46h-7.26H123v3.83c0,2.11,0.26,4.09,0.58,4.41c0.32,0.32,3.43,0.6,6.9,0.63l6.32,0.05L137.16,71.28
	L137.16,71.28z M13.73,70.84C3.76,69.05,0.18,64.76,0.06,54.46c-0.05-3.94,0.23-4.75,1.46-4.28c0.83,0.32,5.33,1.13,10,1.81
	c14.37,2.08,26.12,0.17,42.4-6.9c1.15-0.5,1.3,0.42,0.82,5.06C53.61,60.98,47.78,67.42,37,69.71
	C29.85,71.24,18.91,71.76,13.73,70.84z M175.68,67.98c-9.62-2.58-14.27-7.29-15.8-15.98c-0.61-3.45-0.85-6.53-0.54-6.84
	s3.99,0.62,8.18,2.07c12.98,4.48,29.96,5.66,43.24,2.99l3.25-0.65v4.66c0,6.43-2.18,11.11-6.17,13.23
	C202.85,70.12,184.73,70.41,175.68,67.98z M10.5,47.17C4.15,45.85,0,44.45,0,43.62c0-2.22,5.28-16.41,8.47-22.73l3.46-6.87
	l8.29-2.58c49.26-15.35,128.52-15.26,174.2,0.2c7.56,2.56,8.04,2.91,10.75,7.76c2.88,5.16,7.07,16.31,8.29,22.09l0.67,3.17
	l-5.81,0.83c-10.84,1.55-24.08,0.79-34.31-1.96c-14.27-3.83-15-4.2-15-7.51c0-8.98-18.72-14.17-51-14.15
	c-26.92,0.02-45.4,3.31-50.55,9c-0.93,1.03-1.99,3.35-2.36,5.16c-0.59,2.88-1.4,3.58-6.49,5.61C35.63,46.81,19.79,49.11,10.5,47.17z
	"/>
</svg>
