<?xml version="1.0" encoding="utf-8"?>
<!-- Generator: Adobe Illustrator 23.0.0, SVG Export Plug-In . SVG Version: 6.00 Build 0)  -->
<svg version="1.1" id="Слой_1" xmlns="http://www.w3.org/2000/svg" xmlns:xlink="http://www.w3.org/1999/xlink" x="0px" y="0px"
	 viewBox="0 0 372.25 370.43" style="enable-background:new 0 0 372.25 370.43;" xml:space="preserve" width="36" height="36">
<style type="text/css">
	.st0{fill:#F9AB62;}
	.st1{fill:#FEFEFD;}
	.st2{fill:#F6921E;}
	.st3{fill:#FEFEFE;}
	.st4{fill:#F6931F;}
</style>
<g>
	<path class="st0" d="M0.03,321.61c0-91.05,0-182.11,0-273.16c0.65-0.8,0.53-1.81,0.67-2.73C3.87,24.3,20.81,6.14,42,1.41
		c2.15-0.48,4.4-0.47,6.45-1.38c91.3,0,182.59,0,273.89,0c0.34,0.1,0.68,0.25,1.02,0.29c17.58,1.98,31.15,10.47,40.66,25.32
		c4.61,7.2,7.75,15.11,7.76,23.73c0.09,90.57,0.06,181.13,0.05,271.7c0,0.84,0.02,1.7-0.11,2.52c-2.57,16.59-10.85,29.53-25,38.58
		c-7.15,4.57-14.99,7.78-23.54,7.79c-91.35,0.11-182.7,0.07-274.04,0.06c-0.78,0-1.57,0-2.34-0.1
		c-22.4-3.12-40.35-19.68-45.45-41.83C0.85,325.94,0.85,323.69,0.03,321.61z M186.18,368.58c42.93,0,85.87,0,128.8,0.01
		c3.19,0,6.37-0.18,9.52-0.69c18.13-2.94,31.44-12.66,40.01-28.82c4.13-7.79,5.86-16.26,5.86-25.06c0.01-85.2,0-170.41,0.02-255.61
		c0-3.49-0.16-6.97-0.67-10.43c-2.11-14.17-8.79-25.71-19.98-34.61c-10.05-8-21.67-11.51-34.41-11.51
		c-85.14-0.01-170.29,0-255.43-0.02c-3.91,0-7.81,0.13-11.69,0.67C33.93,4.5,22.35,11.27,13.41,22.48
		C5.42,32.51,1.87,44.13,1.87,56.88c-0.01,85.27,0,170.53-0.01,255.8c0,3.31,0.18,6.61,0.7,9.88c2.86,17.99,12.41,31.29,28.37,39.93
		c7.99,4.32,16.68,6.09,25.73,6.09C99.83,368.58,143,368.58,186.18,368.58z"/>
	<path class="st1" d="M0.03,321.61c0.81,2.08,0.81,4.33,1.31,6.48c5.1,22.16,23.05,38.72,45.45,41.83c0.77,0.11,1.56,0.1,2.34,0.1
		c91.35,0,182.7,0.04,274.04-0.06c8.55-0.01,16.39-3.22,23.54-7.79c14.15-9.05,22.43-21.99,25-38.58c0.13-0.83,0.11-1.68,0.11-2.52
		c0-90.57,0.04-181.13-0.05-271.7c-0.01-8.63-3.15-16.54-7.76-23.73c-9.51-14.85-23.08-23.34-40.66-25.32
		c-0.35-0.04-0.68-0.19-1.02-0.29c16.2,0,32.39,0.01,48.59-0.03c1.05,0,1.31,0.17,1.31,1.28c-0.03,122.58-0.04,245.17,0.02,367.75
		c0,1.48-0.57,1.37-1.58,1.37c-123.07-0.02-246.13-0.02-369.2,0.02c-1.26,0-1.47-0.28-1.47-1.49"/>
	<path class="st1" d="M48.45,0.03c-2.05,0.91-4.3,0.9-6.45,1.38C20.81,6.14,3.87,24.3,0.7,45.72c-0.14,0.92-0.02,1.92-0.67,2.73
		C0.03,32.76,0.05,17.07,0,1.38C0,0.25,0.26,0,1.39,0C17.07,0.04,32.76,0.03,48.45,0.03z"/>
	<path class="st2" d="M186.18,368.58c-43.17,0-86.35,0-129.52,0c-9.05,0-17.74-1.77-25.73-6.09c-15.96-8.63-25.51-21.94-28.37-39.93
		c-0.52-3.27-0.7-6.57-0.7-9.88c0.01-85.27,0-170.53,0.01-255.8c0-12.75,3.55-24.37,11.55-34.4C22.35,11.27,33.93,4.5,48.21,2.52
		c3.88-0.54,7.78-0.67,11.69-0.67c85.14,0.01,170.29,0,255.43,0.02c12.74,0,24.36,3.52,34.41,11.51
		c11.19,8.9,17.87,20.44,19.98,34.61c0.52,3.46,0.67,6.93,0.67,10.43c-0.01,85.2-0.01,170.41-0.02,255.61
		c0,8.8-1.73,17.27-5.86,25.06c-8.57,16.16-21.88,25.88-40.01,28.82c-3.15,0.51-6.33,0.69-9.52,0.69
		C272.05,368.57,229.11,368.58,186.18,368.58z M252.67,122.21c0.01-36.87-29.76-66.74-66.64-66.85
		c-36.83-0.11-66.83,29.86-66.86,66.81c-0.04,36.85,29.78,66.75,66.64,66.83C222.72,189.08,252.66,159.17,252.67,122.21z
		 M210.01,242.12c2.3-0.58,4.76-1.15,7.19-1.82c12.57-3.46,24.39-8.57,34.99-16.25c8.41-6.1,10.2-17.36,4.19-25.59
		c-5.94-8.13-17.19-9.8-25.51-3.78c-2.44,1.77-5,3.34-7.7,4.69c-16.18,8.07-33.28,10.52-51.08,7.93
		c-12.35-1.8-23.85-5.95-34.17-13.21c-6.72-4.73-16.08-3.9-22.21,1.67c-8.74,7.95-7.75,21.62,2.19,28.58
		c12.69,8.91,26.86,14.39,41.94,17.66c1.47,0.32,1.58,0.59,0.54,1.65c-4.07,4.19-8.09,8.43-12.12,12.65
		c-8.56,8.97-17.28,17.81-25.64,26.96c-6.55,7.17-5.79,18.34,1.24,24.94c7.1,6.67,17.97,6.66,25-0.08c1.87-1.79,3.59-3.73,5.37-5.61
		c9.77-10.4,19.55-20.8,29.27-31.24c1.11-1.2,1.76-1.54,3.03-0.15c2.11,2.31,4.45,4.4,6.7,6.58c10.4,10.12,20.75,20.29,31.2,30.36
		c4.61,4.44,10.21,6.08,16.47,4.67c6.84-1.54,11.46-5.79,13.46-12.5c2.04-6.85,0.42-13.03-4.61-18.12
		c-7.67-7.75-15.49-15.34-23.18-23.06C221.01,253.48,215.55,247.8,210.01,242.12z"/>
	<path class="st3" d="M252.67,122.21c-0.01,36.95-29.95,66.87-66.86,66.79c-36.86-0.08-66.68-29.98-66.64-66.83
		c0.04-36.95,30.03-66.92,66.86-66.81C222.91,55.48,252.68,85.34,252.67,122.21z M185.67,149.82c14.85,0.3,27.56-11.97,27.87-26.92
		c0.32-15.27-11.69-27.92-26.83-28.26c-15.32-0.35-28.08,11.65-28.39,26.68C157.99,136.97,170.01,149.5,185.67,149.82z"/>
	<path class="st1" d="M210.01,242.12c5.55,5.68,11.01,11.36,16.57,16.94c7.69,7.72,15.52,15.31,23.18,23.06
		c5.03,5.09,6.65,11.26,4.61,18.12c-2,6.71-6.63,10.95-13.46,12.5c-6.26,1.41-11.86-0.23-16.47-4.67
		c-10.45-10.07-20.81-20.23-31.2-30.36c-2.24-2.18-4.59-4.28-6.7-6.58c-1.27-1.39-1.92-1.05-3.03,0.15
		c-9.72,10.45-19.5,20.84-29.27,31.24c-1.77,1.89-3.5,3.82-5.37,5.61c-7.03,6.74-17.9,6.75-25,0.08c-7.03-6.6-7.79-17.77-1.24-24.94
		c8.36-9.16,17.07-17.99,25.64-26.96c4.03-4.22,8.05-8.46,12.12-12.65c1.03-1.06,0.92-1.33-0.54-1.65
		c-15.08-3.27-29.25-8.75-41.94-17.66c-9.93-6.97-10.93-20.64-2.19-28.58c6.12-5.57,15.48-6.4,22.21-1.67
		c10.31,7.26,21.81,11.41,34.17,13.21c17.8,2.59,34.9,0.13,51.08-7.93c2.7-1.34,5.26-2.92,7.7-4.69c8.32-6.02,19.57-4.35,25.51,3.78
		c6.01,8.23,4.22,19.49-4.19,25.59c-10.6,7.68-22.42,12.79-34.99,16.25C214.77,240.97,212.31,241.54,210.01,242.12z"/>
	<path class="st4" d="M185.67,149.82c-15.66-0.32-27.68-12.85-27.35-28.5c0.32-15.04,13.08-27.03,28.39-26.68
		c15.14,0.34,27.14,12.99,26.83,28.26C213.23,137.84,200.52,150.12,185.67,149.82z"/>
</g>
</svg>
