<svg id="Layer_2" width="95" height="94" data-name="Layer 2" xmlns="http://www.w3.org/2000/svg" viewBox="0 0 94.94 94.16"><defs><style>.cls-1{fill:#836551;fill-rule:evenodd;}</style></defs><title>ad1</title><path class="cls-1" d="M218.36,251.05a47.19,47.19,0,0,0-8.51-13.1q-1,1.89-2,3.78a43,43,0,0,1,6.43,10C215.64,251.5,217,251.28,218.36,251.05Z" transform="translate(-128.07 -222.66)"/><path class="cls-1" d="M218.08,266.23c.1,1.16.16,2.33.16,3.51a43.08,43.08,0,0,1-43.08,43.08c-.79,0-1.57,0-2.35-.06a7.19,7.19,0,0,1,.22,1.84,6.62,6.62,0,0,1-.4,2.15c.84.05,1.68.07,2.53.07a47.13,47.13,0,0,0,47.08-47.08,46.4,46.4,0,0,0-.42-6.16A39.42,39.42,0,0,1,218.08,266.23Z" transform="translate(-128.07 -222.66)"/><path class="cls-1" d="M132.07,269.74a43.08,43.08,0,0,1,64.65-37.29l3.37-2.62a47.07,47.07,0,1,0-42.36,83.64,18.36,18.36,0,0,1-.57-4.58A43.1,43.1,0,0,1,132.07,269.74Z" transform="translate(-128.07 -222.66)"/><path class="cls-1" d="M166.84,307.57c7.74-2.72,16.32-9.66,14.54-19.83-.9-5.14-4.48-5-7.27-9.25,14.44-12,24.22-28.66,33-46.26h-2c-7.44,5.66-21.91,17-28.41,26.43-2.61,3.78-4.6,9.32-7.27,13.88-4.54,7.75-15.13,21.23-6.61,31.06-1.38,4.62-1.21,12.39,4,12.56C170.11,314.43,165.46,311.56,166.84,307.57Zm8.32-38.83a2.59,2.59,0,1,1-2.59,2.59A2.59,2.59,0,0,1,175.16,268.74Zm-10.3,28.91c-1.86-9,7-16.94,11.9-9.25C177,295.82,170.58,304.17,164.86,297.65Z" transform="translate(-128.07 -222.66)"/><path class="cls-1" d="M184,273.86c14-5.2,30.57-7.75,39-18.5-9.42,1.38-18.12,3.47-27.76,4.63C193.13,266.22,188.23,269.7,184,273.86Z" transform="translate(-128.07 -222.66)"/><path class="cls-1" d="M140.41,262.63c-4.22,12.25,8.42,16,21.81,13.88,3.78-4.82,5.85-10,2-15.86C159.31,253.19,143.29,254.27,140.41,262.63Zm5.29,7.27c-5.13-10.84,12.89-11.07,14.53-5.29C162.41,272.24,151.14,272.64,145.7,269.9Z" transform="translate(-128.07 -222.66)"/></svg>
