<?xml version="1.0" encoding="utf-8"?>
<!-- Generator: Adobe Illustrator 23.0.0, SVG Export Plug-In . SVG Version: 6.00 Build 0)  -->
<svg version="1.1" id="svg3385" xmlns="http://www.w3.org/2000/svg" xmlns:xlink="http://www.w3.org/1999/xlink" x="0px" y="0px" width="35" height="34"
	 viewBox="0 0 318.64 295.66" style="enable-background:new 0 0 318.64 295.66;" xml:space="preserve">
<style type="text/css">
	.st0{fill:#FFFFFF;}
</style>
<path id="path3395" class="st0" d="M18.23,293.06c-7.21-3.4-10.51-6.24-14.64-12.58c-3.11-4.77-3.43-9.59-3.57-53.4
	c-0.08-26.49,0.11-48.16,0.43-48.16c0.32,0,4.04,1.8,8.27,4.01c6.54,3.41,11.42,4.12,32.79,4.77l25.1,0.76v6.04
	c0,3.84,1.73,8.09,4.73,11.66c4.35,5.17,5.63,5.62,16.19,5.62c15.48,0,21.08-4.15,21.08-15.65v-8.08h50.21h50.21v6.29
	c0,9.08,6.42,15.79,16.59,17.33c16.22,2.46,25.82-3.53,26.13-16.31l0.18-7.31L272,188c22.7-0.05,33.78-2.05,41.4-7.48l5.24-3.73
	l-0.14,48.82c-0.14,51.94-0.45,53.93-9.44,62.1c-8.69,7.89-10.32,7.98-150.85,7.96C46.06,295.65,22.8,295.21,18.23,293.06
	L18.23,293.06z M16.4,169.05C2.93,163.1-0.36,153.7,0.08,122.37c0.3-21.68,0.71-24.34,4.63-30.06C12.63,80.75,20.3,78.5,51.75,78.5
	h27.64V58.31c0-11.1,0.95-23.98,2.12-28.61c2.77-10.99,15.9-24.88,26.18-27.69c4.37-1.19,25.49-2,52.55-2.01
	c48.66-0.01,51.57,0.44,64.14,10.04c10.79,8.23,14.27,18.52,15.28,45.18l0.88,23.28l26.69,0.04c30.44,0.05,38.42,2.3,46.04,12.98
	c4.03,5.66,4.43,8.17,4.98,31.55c0.71,29.93-1.08,35.95-12.96,43.66c-7.12,4.62-8.76,4.89-29.76,4.89h-22.22l-1.17-8.81
	c-1.94-14.63-9.67-19.94-26.28-18.07c-11.28,1.27-16.84,7.44-16.84,18.68v8.03l-50.21,0.11l-50.21,0.11v-9.24
	c0-13.55-5.15-18.2-20.14-18.2c-9.92,0-11.78,0.6-16.51,5.34c-4.34,4.34-5.34,6.89-5.34,13.69v8.36l-22.37-0.07
	C29.81,171.5,19.94,170.61,16.4,169.05L16.4,169.05z M212.53,60.09c0.27-22.33-2.56-30.2-11.45-31.86c-3.16-0.59-24-0.82-46.31-0.5
	c-36.02,0.5-40.93,0.93-43.82,3.82c-2.64,2.64-3.37,7.06-3.88,23.36c-0.34,11.06-0.24,21.1,0.22,22.31
	c0.64,1.66,13.59,2.07,52.93,1.69l52.08-0.51L212.53,60.09z"/>
</svg>
