<?xml version="1.0" encoding="utf-8"?>
<!-- Generator: Adobe Illustrator 23.0.0, SVG Export Plug-In . SVG Version: 6.00 Build 0)  -->
<svg version="1.1" id="svg3336" xmlns="http://www.w3.org/2000/svg" xmlns:xlink="http://www.w3.org/1999/xlink" x="0px" y="0px" width="38" height="34"
	 viewBox="0 0 171.66 153.43" style="enable-background:new 0 0 171.66 153.43;" xml:space="preserve">
<style type="text/css">
	.st0{fill:#FFFFFF;}
</style>
<path id="path3346" class="st0" d="M19.26,148.2c-2.88-2.88-5.23-7.07-5.23-9.32c0-2.8-1.93-4.48-6.12-5.32
	c-11.08-2.22-10.19-14.22,1.06-14.22c4.58,0,5.07-0.91,5.07-9.59c0-8.77-0.45-9.59-5.25-9.59c-6.33,0-10.19-5.98-7.25-11.24
	c1.13-2.02,4.41-3.67,7.28-3.67c4.65,0,5.22-0.91,5.22-8.35c0-7.5-0.64-8.49-6.21-9.72c-8.28-1.82-10.28-7.46-4.33-12.27
	c2.55-2.06,5.96-3.75,7.59-3.75c2.03,0,2.96-2.67,2.96-8.52c0-7.64-0.55-8.52-5.25-8.52c-6.6,0-11.18-7.32-7.42-11.86
	c1.4-1.68,4.82-3.06,7.61-3.06c3.68,0,5.07-1.19,5.07-4.36c0-2.4,2.35-6.71,5.23-9.59L24.49,0h54.11c48.89,0,54.41,0.36,57.31,3.73
	c6.05,7.05,6.18,8.83,0.87,12.31c-4.93,3.23-5.52,3.17-9.66-0.97c-4.09-4.09-6.87-4.41-38.5-4.41H54.52v66.06v66.06h33.17
	c18.79,0,34.96-0.96,37.29-2.21c3.45-1.85,4.12-4.55,4.12-16.68c0-12.37,0.72-15.14,4.93-19.1c2.71-2.55,5.59-4.63,6.39-4.63
	c2.44,0,1.63,39.92-0.93,45.53c-1.31,2.89-4.43,5.79-6.93,6.46c-2.49,0.67-27.83,1.23-56.31,1.25l-51.77,0.03L19.26,148.2z
	 M71.56,112.14c0-0.44,2.04-5.42,4.54-11.07l4.54-10.27l6.31,7.07c5.89,6.59,6.97,6.98,16.06,5.73c14.41-1.97,9.47,0.75-9.52,5.25
	C76.76,112.82,71.56,113.6,71.56,112.14L71.56,112.14z M117.29,100.01c-1.24-2,11.69-14.98,19.6-19.67
	c3.43-2.04,3.84-7.89,0.55-7.89c-1.28,0-7.75,4.85-14.38,10.78l-12.06,10.78l-5.86-6.97c-3.22-3.84-5.86-7.58-5.86-8.32
	s5.75-5.96,12.79-11.6c7.03-5.64,12.79-11.01,12.79-11.93c0-4.78-4.66-2.65-16.94,7.73c-12.78,10.82-17.35,12.62-17.02,6.73
	c0.16-2.83,28.23-27.13,31.08-26.9c2.81,0.22,28.92,31.48,28.11,33.64c-0.86,2.27-28.36,25.88-30.14,25.88
	C119.25,102.28,118.06,101.26,117.29,100.01L117.29,100.01z M142.42,52.33c-7.33-8.56-13.31-16.41-13.3-17.44
	c0.01-1.03,3.49-4.24,7.75-7.14l7.73-5.27l13.5,14.86c7.43,8.17,13.53,15.88,13.56,17.12c0.07,2.81-11.16,13.77-13.91,13.57
	C156.64,67.97,149.74,60.9,142.42,52.33L142.42,52.33z"/>
</svg>
