<?xml version="1.0" encoding="utf-8"?>
<!-- Generator: Adobe Illustrator 23.0.0, SVG Export Plug-In . SVG Version: 6.00 Build 0)  -->
<svg version="1.1" id="Слой_1" xmlns="http://www.w3.org/2000/svg" xmlns:xlink="http://www.w3.org/1999/xlink" x="0px" y="0px" width="32" height="38"
	 viewBox="0 0 164.8 196.01" style="enable-background:new 0 0 164.8 196.01;" xml:space="preserve">
<style type="text/css">
	.st0{fill:#FFFFFF;}
</style>
<g>
	<path class="st0" d="M0,149.61c0.54-2.03,1.03-4.08,1.62-6.1c1.92-6.64,5.61-11.58,12.48-13.92c5.91-2.01,11.78-4.21,17.47-6.77
		c7.14-3.21,14.08-6.86,21.58-10.55c5.75,18,11.55,36.13,17.61,55.11c2.46-6.55,4.7-12.22,6.66-17.99c0.35-1.03-0.3-2.53-0.8-3.68
		c-1.37-3.16-3.25-6.15-4.28-9.41c-1.2-3.78-0.62-7.4,3.07-9.89c4.11-2.77,10.41-2.7,14.31,0.22c3.52,2.64,4,6.18,2.61,10
		c-1.04,2.86-2.24,5.73-3.83,8.3c-1.44,2.32-1.44,4.3-0.45,6.72c2.02,4.9,3.79,9.89,5.99,15.72c6.03-18.9,11.79-36.95,17.64-55.27
		c5.86,3.01,11.38,6.16,17.15,8.74c6.79,3.03,13.69,5.92,20.75,8.24c8.51,2.79,12.51,8.91,14.34,17.08
		c0.26,1.15,0.59,2.29,0.89,3.43c0,4.8,0,9.6,0,14.4c-0.47,3.52-0.79,7.08-1.5,10.55c-0.24,1.18-1.23,2.62-2.28,3.15
		c-14.13,7.22-28.96,12.46-44.64,15.07c-7.56,1.26-15.18,2.16-22.78,3.23c-8,0-16,0-24,0c-1.02-0.23-2.04-0.58-3.07-0.66
		c-21.95-1.69-42.74-7.57-62.36-17.51c-1.24-0.63-2.38-2.3-2.7-3.69C0.7,170.84,0.46,167.4,0,164.01C0,159.21,0,154.41,0,149.61z"/>
	<path class="st0" d="M123.44,37.6c-0.29,2.78-0.68,5.55-0.85,8.33c-0.24,3.94-1.99,8,1.87,11.55c1.11,1.02,0.97,3.82,0.79,5.75
		c-0.68,7.24-2.52,14.1-7.02,20.06c-1.18,1.56-2.09,3.44-2.72,5.31c-3.38,10.08-10.37,17.28-18.76,23.2
		c-10.12,7.14-23.48,5.56-34.56-3.72c-1.22-1.02-2.37-2.14-3.47-3.3c-6.58-6.89-18.15-31.56-19.16-41.01
		c-0.33-3.05-0.22-5.9,2.28-8.49c1.04-1.07,0.9-3.72,0.64-5.56C39.23,26.12,55,4.34,78.46,0.44c9.6-1.59,18.12,1.2,25.75,7.14
		c3.65,2.84,7.73,5.16,11.2,8.19c5.08,4.41,6.92,10.56,7.75,17.02c0.2,1.57,0.03,3.19,0.03,4.79
		C123.28,37.58,123.36,37.59,123.44,37.6z"/>
</g>
</svg>
