<?xml version="1.0" encoding="utf-8"?>
<!-- Generator: Adobe Illustrator 23.0.0, SVG Export Plug-In . SVG Version: 6.00 Build 0)  -->
<svg version="1.1" id="svg3336" xmlns="http://www.w3.org/2000/svg" xmlns:xlink="http://www.w3.org/1999/xlink" x="0px" y="0px" width="31" height="42"
	 viewBox="0 0 727.18 980" style="enable-background:new 0 0 727.18 980;" xml:space="preserve">
<style type="text/css">
	.st0{fill:#FFFFFF;}
	.st1{fill:#E3DBDB;fill-opacity:0;}
</style>
<path id="path3346" class="st0" d="M293.21,979.14c-7.62-2.01-9.35-5-11.98-20.7c-2.07-12.37-4.18-19.04-6.81-21.52
	c-4.74-4.49-29.12-14.91-34.88-14.91c-2.59,0-6.67,2.18-16.84,9c-17.24,11.57-20.73,12.3-29.05,6.05
	c-5.37-4.03-19.99-19.44-25.1-26.45c-4.58-6.28-3.94-8.52,7.18-25.1c7.7-11.48,10.25-17.21,9.49-21.3
	c-1.7-9.08-12.23-31.31-15.99-33.77c-1.36-0.89-9.09-2.96-17.17-4.59c-8.08-1.63-16-3.64-17.6-4.47c-5.29-2.73-6.13-6.64-6.16-28.37
	c-0.03-28.04,0.26-28.48,21.13-32.03c6.48-1.1,13.25-2.48,15.05-3.07c7.25-2.37,11.4-7.94,17.71-23.8
	c5.27-13.24,4.88-16.76-3.19-29.23c-8.56-13.22-12.73-21.98-11.95-25.1c0.35-1.39,2.77-4.9,5.39-7.82
	c7.7-8.57,27.16-25.88,29.83-26.55c3.48-0.87,7.39,0.98,19.68,9.34c5.92,4.02,11.99,7.79,13.5,8.37c6.68,2.57,18.29-0.1,33.24-7.64
	c10.45-5.27,11.45-6.83,14.52-22.47c3.17-16.14,5.31-21.55,9.17-23.21c4.06-1.74,45-1.75,48.04-0.01c3.51,2,5.26,6.49,8.37,21.41
	c4.33,20.77,3.6,19.7,18.08,26.69c6.77,3.27,14.81,6.71,17.87,7.65c5.47,1.68,5.62,1.68,10-0.56c2.45-1.25,8.27-4.84,12.95-7.98
	c10.55-7.09,16.2-10,19.38-10c4.61,0,22.48,15.65,31.23,27.36c6.88,9.2,6.16,13.26-5.3,30c-2.98,4.35-6.52,10.08-7.86,12.74
	l-2.45,4.83l3.32,9.29c4.67,13.04,11.6,26.01,14.67,27.47c1.38,0.65,8.57,2.39,16,3.86c24.44,4.84,24.5,4.93,24.5,33.64
	c0,19.31-0.14,20.86-2.06,23.5c-3.02,4.14-7.54,5.94-20.69,8.26c-13.95,2.47-18.92,4.29-22.16,8.13
	c-3.14,3.73-9.14,16.45-12.34,26.13c-3.07,9.32-3.07,9.32,7.41,25.11c4,6.03,8.02,12.91,8.93,15.29c1.62,4.24,1.6,4.4-0.87,8.61
	c-6.11,10.41-29.29,31.76-34.5,31.78c-3.14,0.01-10.8-4.01-22.09-11.61c-12.27-8.26-15.06-9.12-22.59-6.93
	c-8.53,2.48-21.57,8.77-25.7,12.4c-4.49,3.94-6.29,8.33-8.32,20.31c-0.87,5.14-2.26,11.43-3.09,13.98
	c-2.63,8.11-2.58,8.1-26.15,8.47C305.55,979.79,294.86,979.58,293.21,979.14L293.21,979.14z M339.76,866.71
	c10.42-3.55,17.72-8.49,28.44-19.23c16.06-16.1,21.2-27.02,22.35-47.48c1.08-19.2,0.19-25.15-5.56-37.14
	c-12.12-25.28-31.16-40.15-58.13-45.42c-13.59-2.66-25.8-1.33-40.58,4.41c-19.94,7.74-37.14,25.71-44.75,46.74
	c-2.65,7.32-3.76,32.25-1.9,42.89c3.44,19.73,20.91,41.42,41.84,51.94c9.22,4.63,14.32,5.46,33.74,5.5
	C331.28,868.94,333.91,868.71,339.76,866.71L339.76,866.71z M579.21,770.54c-11.03-2.02-15.6-3.68-16.47-5.97
	c-0.43-1.13-1.22-7.22-1.76-13.52l-0.98-11.46l-4.95-4.54c-6.24-5.73-13.86-9.88-19.47-10.63c-3.86-0.51-5.49,0.01-14.24,4.5
	c-5.43,2.8-10.51,5.08-11.27,5.08c-3.63,0-17.42-16.14-20.9-24.46c-2.22-5.32-0.74-8.81,7.72-18.09l7.09-7.78l-0.54-7.09
	c-1.31-17.09-4.68-21.96-19-27.5c-4.81-1.86-9.93-4.48-11.37-5.81c-2.54-2.35-2.6-2.69-1.96-10.43c0.64-7.64,2.75-19.46,4.12-23.02
	c0.93-2.41,2.79-2.92,14.17-3.86c14.9-1.23,16.96-2.62,25.8-17.31l5.32-8.84l-4.34-9.16c-2.38-5.04-4.92-11.36-5.64-14.04l-1.3-4.88
	l6.21-5.71c6.89-6.34,19.31-15.02,21.48-15.02c0.77,0,4.47,2.59,8.23,5.75c11.84,9.97,14.23,11.42,18.89,11.42
	c5.16,0,15.74-2.65,20.71-5.19c4.53-2.31,6.04-4.59,8.93-13.48c2.83-8.7,5.48-13.18,8.33-14.12c3.05-1,8.66-0.53,19.2,1.63
	c11.32,2.32,14.18,3.41,14.89,5.68c1.01,3.24,2.57,15.69,2.6,20.81c0.02,2.75,0.37,5.46,0.77,6.01
	c1.12,1.54,16.35,11.23,19.55,12.43c4.49,1.68,6.3,1.32,17.24-3.44c5.68-2.47,11.42-4.5,12.75-4.5c3.66,0,16.2,14.14,21.15,23.85
	c1.7,3.34,1.7,3.36-1.75,8.55c-1.9,2.86-6.23,8.42-9.61,12.34l-6.16,7.14l2,7.82c2.69,10.52,4.8,16.34,6.72,18.45
	c0.87,0.97,4.58,2.74,8.22,3.94c9.14,3.01,15.85,6.51,17.16,8.96c1.19,2.23-0.21,21.06-2.1,28.15c-1.75,6.59-3.07,7.26-16.43,8.3
	c-13.32,1.04-17.84,4.17-25.37,17.58c-4.15,7.38-4.01,10.89,0.87,22.3c5.4,12.63,5.29,14.26-1.25,20.19
	C676.3,747.14,663.1,756,660.96,756c-1.72,0-9.85-5.77-12.77-9.06c-4.56-5.14-9.64-7.94-14.4-7.94c-5.12,0-18.41,3.36-21.69,5.49
	c-2.57,1.66-5.93,8.6-7.9,16.29c-2.06,8.05-5.73,11.24-12.76,11.12C588.56,771.86,583.06,771.24,579.21,770.54z M614.29,694.53
	c6.85-2.03,16.42-8.02,22.88-14.32c10.21-9.95,14.92-21.55,14.89-36.71c-0.01-4.95-0.59-11.01-1.29-13.47
	c-6.7-23.64-27.24-39.35-51.57-39.44c-14.61-0.05-26.17,4.96-37.19,16.15c-20.7,21-20.24,53.54,1.06,74.69
	c7.95,7.89,15.31,12.08,23.63,13.45C595.51,696.31,608.85,696.15,614.29,694.53L614.29,694.53z M217.71,606.61
	c-5.77-1.8-16.8-5.65-24.5-8.55c-32.18-12.12-40.5-18.12-40.5-29.23c0-2.35,1.61-13.51,3.58-24.8c4.16-23.84,4.72-34.85,2.03-39.91
	c-4.01-7.52-34.89-35.92-43.28-39.8c-4.78-2.21-5.67-2.31-12-1.32c-3.76,0.59-15.16,3.05-25.34,5.48
	c-23.84,5.68-28.77,6.26-34.51,4.07c-2.44-0.93-5.54-3.01-6.9-4.63c-4.64-5.51-21.51-42.41-27.99-61.2
	c-1.98-5.73-2.51-8.76-2.02-11.5c1.43-8.04,4.46-10.91,30.44-28.93c7.99-5.54,16.36-12.06,18.61-14.5
	c6.12-6.64,6.8-10.79,5.97-36.43c-0.75-23.06-1.61-30.54-4.05-35.27c-1.87-3.62-11.19-10.36-28.9-20.92
	C5.95,245.8-1.15,238.42,0.15,229.84c1.49-9.87,21.77-65.2,25.34-69.15c0.94-1.05,3.84-2.98,6.43-4.29
	c6.45-3.27,12.07-3.1,34.61,1.04c10.27,1.89,21.91,3.74,25.87,4.12c6.62,0.64,7.56,0.49,11.63-1.9c5.26-3.09,38.3-37.15,41.17-42.46
	c3.31-6.11,2.57-15.5-2.99-38.2c-7.82-31.9-7.39-37.9,3.14-44.64c7.36-4.71,32.83-17.03,45.94-22.22
	c13.84-5.48,20.98-6.89,26.54-5.22c5.25,1.57,8.05,4.55,20.1,21.35c12.29,17.15,20.65,27.6,24.1,30.15
	c2.61,1.92,4.39,2.11,23.5,2.39c22.18,0.33,38.54-0.91,43.13-3.29c4.24-2.19,8.57-7.76,18.42-23.68
	c17.44-28.2,21.2-32.33,30.52-33.54c4.18-0.54,29.84,7.45,52.61,16.4c17.9,7.03,19.79,8.23,22.93,14.53
	c3.3,6.62,3.3,11.65,0.03,28.88c-6.11,32.18-6.34,38.86-1.57,45.78c3.32,4.83,38.11,38,42.4,40.43c5.21,2.95,16.66,1.77,41.71-4.32
	c24.61-5.97,28.54-6.13,35.32-1.36c4.71,3.31,8.06,9.37,20.92,37.87c13.62,30.17,14.6,34.05,10.68,42.15
	c-2.64,5.46-7.23,9.47-24.99,21.86c-16.86,11.76-24.28,18.29-27.1,23.8c-1.96,3.84-2.03,5.24-1.57,29.6
	c0.75,39.1-0.84,36.54,36.24,58.27c15.02,8.8,19.76,12.63,22.41,18.1c2.97,6.14,2.68,9.03-2.53,25.01
	c-8.89,27.27-17.27,46.84-22.93,53.57c-6.1,7.25-10.19,7.55-37.03,2.71c-26.87-4.84-33.05-5.3-38.53-2.84
	c-4.82,2.17-34.08,31.2-39.54,39.24c-6.76,9.95-6.74,13.31,0.23,41.22c7.21,28.88,7.08,35.48-0.85,42.45
	c-7.99,7.01-58.41,29.4-67.84,30.12c-10.39,0.79-14.05-2.39-31.74-27.59c-10.34-14.73-18-23.56-22.41-25.84
	c-4.39-2.27-14.9-2.7-36.74-1.5c-31.25,1.72-32.04,2.19-47.44,28.2c-11.76,19.85-18.12,28.07-23.9,30.86
	C230.89,610.58,230.27,610.53,217.71,606.61L217.71,606.61z M335.21,430.64c45.97-11.78,77.54-41.69,93.77-88.84l4.23-12.3
	l-0.02-24.5l-0.02-24.5l-3.35-10c-19.81-59.18-66.93-94.56-126.11-94.69c-33.61-0.07-64.29,13.24-90.07,39.1
	c-15.73,15.77-24.83,30.4-31.41,50.48c-22.17,67.69,14.4,139.23,82.88,162.15c16.15,5.4,23.69,6.46,43.11,6.04
	C322.36,433.26,326.88,432.77,335.21,430.64L335.21,430.64z"/>
<path id="path3348" class="st1" d="M197.11,597.6c-14.67-5.75-30.63-13.43-35.48-17.06c-8.77-6.57-8.79-6.69-5.09-27.95
	c2.04-11.74,3.72-28.06,3.72-36.27c0-14.23-0.99-15.83-21.64-34.75c-24.11-22.09-25.26-22.37-61.01-14.51
	c-34.61,7.61-37.8,6.13-51.82-23.97C2.73,393.6,2.75,392.86,27.7,375.01c34.8-24.9,34.85-24.98,34.8-56.39
	c-0.03-15.67-1.83-31.46-4.11-36.03c-2.24-4.48-14.63-15.12-27.54-23.64c-12.91-8.53-24.99-18.34-26.85-21.8
	c-2.61-4.88-0.8-13.49,7.99-38.1c6.25-17.49,14.26-34.69,17.79-38.22c6.02-6.02,8.05-6.18,31.81-2.57
	c41.78,6.36,41.46,6.45,64.8-18.07c23.65-24.85,24.93-30.39,15.83-68.96c-2.7-11.45-3.99-23.71-2.87-27.24
	c2.53-7.97,58.21-35,72.09-35c8.28,0,12.55,3.72,29.01,25.24l19.3,25.24l31.76,0.93c17.47,0.51,34.23-0.45,37.25-2.14
	c3.02-1.69,12.88-13.71,21.91-26.72S369.65,6.33,372.78,4.4c7.1-4.38,67.61,15.15,76.14,24.58c5.04,5.57,5.15,8.95,1.3,38.04
	c-3.15,23.77-3.3,33.67-0.59,38.74c6.21,11.61,44.67,43.29,52.55,43.29c4.04,0,19.49-2.5,34.33-5.55c23.18-4.77,27.75-4.91,32.46-1
	c6.2,5.15,24.84,41.11,30.74,59.32c5.21,16.08,1.9,21.57-24.28,40.26c-11.65,8.32-22.63,17.81-24.39,21.09
	c-4.06,7.59-4.18,55.51-0.16,66.07c1.77,4.66,11.62,13.11,23.61,20.27c28.12,16.79,31.98,20.58,31.98,31.41
	c0,11.45-17.69,58.27-25.81,68.29c-5.73,7.07-6.61,7.17-31.57,3.37c-39.84-6.06-41.94-5.67-60.04,11.26
	c-8.89,8.32-19.26,20.13-23.04,26.24c-6.78,10.98-6.8,11.44-1.27,37.8c8.37,39.91,8.09,40.56-25,57.24
	c-16.94,8.54-33.2,14.42-40.5,14.66c-11.55,0.37-13.21-0.95-31.23-24.81c-12.22-16.19-22.05-25.96-27.46-27.32
	c-10.69-2.68-54.95,0.95-62.81,5.16c-3.27,1.75-10.78,10.92-16.69,20.39c-13.85,22.17-25.79,35.15-32.2,34.99
	C226.06,608.11,211.77,603.35,197.11,597.6L197.11,597.6z M343.26,429.25c37.71-11.65,63.76-35.19,81-73.21
	c8.43-18.59,9.61-24.9,9.61-51.48c0-27.83-0.91-32.2-11.23-53.74c-14.12-29.46-34.8-50.38-63.03-63.75
	c-19.99-9.47-24.56-10.34-54.4-10.34c-29.68,0-34.47,0.9-53.91,10.11c-38.89,18.43-67.25,55.12-74.96,97
	C159.12,377.23,251.41,457.62,343.26,429.25z"/>
<path id="path3350" class="st1" d="M197.11,597.6c-14.67-5.75-30.63-13.43-35.48-17.06c-8.77-6.57-8.79-6.69-5.09-27.95
	c2.04-11.74,3.72-28.06,3.72-36.27c0-14.23-0.99-15.83-21.64-34.75c-24.11-22.09-25.26-22.37-61.01-14.51
	c-34.61,7.61-37.8,6.13-51.82-23.97C2.73,393.6,2.75,392.86,27.7,375.01c34.8-24.9,34.85-24.98,34.8-56.39
	c-0.03-15.67-1.83-31.46-4.11-36.03c-2.24-4.48-14.63-15.12-27.54-23.64c-12.91-8.53-24.99-18.34-26.85-21.8
	c-2.61-4.88-0.8-13.49,7.99-38.1c6.25-17.49,14.26-34.69,17.79-38.22c6.02-6.02,8.05-6.18,31.81-2.57
	c41.78,6.36,41.46,6.45,64.8-18.07c23.65-24.85,24.93-30.39,15.83-68.96c-2.7-11.45-3.99-23.71-2.87-27.24
	c2.53-7.97,58.21-35,72.09-35c8.28,0,12.55,3.72,29.01,25.24l19.3,25.24l31.76,0.93c17.47,0.51,34.23-0.45,37.25-2.14
	c3.02-1.69,12.88-13.71,21.91-26.72S369.65,6.33,372.78,4.4c7.1-4.38,67.61,15.15,76.14,24.58c5.04,5.57,5.15,8.95,1.3,38.04
	c-3.15,23.77-3.3,33.67-0.59,38.74c6.21,11.61,44.67,43.29,52.55,43.29c4.04,0,19.49-2.5,34.33-5.55c23.18-4.77,27.75-4.91,32.46-1
	c6.2,5.15,24.84,41.11,30.74,59.32c5.21,16.08,1.9,21.57-24.28,40.26c-11.65,8.32-22.63,17.81-24.39,21.09
	c-4.06,7.59-4.18,55.51-0.16,66.07c1.77,4.66,11.62,13.11,23.61,20.27c28.12,16.79,31.98,20.58,31.98,31.41
	c0,11.45-17.69,58.27-25.81,68.29c-5.73,7.07-6.61,7.17-31.57,3.37c-39.84-6.06-41.94-5.67-60.04,11.26
	c-8.89,8.32-19.26,20.13-23.04,26.24c-6.78,10.98-6.8,11.44-1.27,37.8c8.37,39.91,8.09,40.56-25,57.24
	c-16.94,8.54-33.2,14.42-40.5,14.66c-11.55,0.37-13.21-0.95-31.23-24.81c-12.22-16.19-22.05-25.96-27.46-27.32
	c-10.69-2.68-54.95,0.95-62.81,5.16c-3.27,1.75-10.78,10.92-16.69,20.39c-13.85,22.17-25.79,35.15-32.2,34.99
	C226.06,608.11,211.77,603.35,197.11,597.6L197.11,597.6z M343.26,429.25c37.71-11.65,63.76-35.19,81-73.21
	c8.43-18.59,9.61-24.9,9.61-51.48c0-27.83-0.91-32.2-11.23-53.74c-14.12-29.46-34.8-50.38-63.03-63.75
	c-19.99-9.47-24.56-10.34-54.4-10.34c-29.68,0-34.47,0.9-53.91,10.11c-38.89,18.43-67.25,55.12-74.96,97
	C159.12,377.23,251.41,457.62,343.26,429.25z"/>
<path id="path3352" class="st1" d="M575.56,768.31c-8.55-1.83-10.17-4.05-13.11-17.91c-2.8-13.18-5.34-16.98-15.2-22.7
	c-11.62-6.74-12.08-6.76-24.26-0.95l-12.41,5.92l-10.67-11.65c-5.87-6.41-10.67-13.02-10.67-14.7s3.86-7.64,8.57-13.24
	c7.67-9.12,8.27-11.62,5.69-23.84c-2.41-11.41-5.03-14.77-15.9-20.41c-14.01-7.27-16.37-12.43-13.25-29.03
	c1.79-9.53,3.38-10.84,15.09-12.41c14.88-2,21.07-6.22,27.59-18.82c3.98-7.7,3.87-10.57-0.89-22.69L510.67,552l11.14-9.3
	c13.56-11.32,14.51-11.37,26.64-1.16c10.76,9.05,16.35,9.85,31.67,4.5c7.57-2.64,11.82-7.11,15.5-16.29
	c4.21-10.52,6.61-12.65,14.27-12.65c5.06,0,12.97,1.43,17.56,3.18c6.79,2.58,8.35,5.33,8.35,14.66c0,20.49,20.06,32.42,41.48,24.68
	c10.21-3.69,11.9-3.38,19.35,3.59c14.18,13.27,14.65,16.87,3.85,29.97c-9.61,11.66-9.77,12.38-5.53,25.6
	c3.39,10.56,7.27,15.12,17.39,20.41c12.21,6.38,12.97,7.62,12.1,19.72c-1.37,19.1-2.72,21.06-14.53,21.06
	c-21.26,0-35.73,19.79-28.87,39.47c5.44,15.6,4.63,18.23-8.26,26.99l-11.87,8.07l-10.42-7.95c-17.09-13.03-41.36-9.16-45.49,7.27
	C600.72,770.91,596.79,772.85,575.56,768.31L575.56,768.31z M627.93,689.57c16.19-10.01,24.17-25.13,24.15-45.82
	c-0.02-28.17-17.04-48.47-45.09-53.77c-26.71-5.05-56.64,17.43-60.88,45.72c-2.82,18.83,7.91,42.41,24.22,53.22
	C585.13,698.73,612.61,699.04,627.93,689.57L627.93,689.57z"/>
<path id="path3354" class="st1" d="M575.56,768.31c-8.55-1.83-10.17-4.05-13.11-17.91c-2.8-13.18-5.34-16.98-15.2-22.7
	c-11.62-6.74-12.08-6.76-24.26-0.95l-12.41,5.92l-10.67-11.65c-5.87-6.41-10.67-13.02-10.67-14.7s3.86-7.64,8.57-13.24
	c7.67-9.12,8.27-11.62,5.69-23.84c-2.41-11.41-5.03-14.77-15.9-20.41c-14.01-7.27-16.37-12.43-13.25-29.03
	c1.79-9.53,3.38-10.84,15.09-12.41c14.88-2,21.07-6.22,27.59-18.82c3.98-7.7,3.87-10.57-0.89-22.69L510.67,552l11.14-9.3
	c13.56-11.32,14.51-11.37,26.64-1.16c10.76,9.05,16.35,9.85,31.67,4.5c7.57-2.64,11.82-7.11,15.5-16.29
	c4.21-10.52,6.61-12.65,14.27-12.65c5.06,0,12.97,1.43,17.56,3.18c6.79,2.58,8.35,5.33,8.35,14.66c0,20.49,20.06,32.42,41.48,24.68
	c10.21-3.69,11.9-3.38,19.35,3.59c14.18,13.27,14.65,16.87,3.85,29.97c-9.61,11.66-9.77,12.38-5.53,25.6
	c3.39,10.56,7.27,15.12,17.39,20.41c12.21,6.38,12.97,7.62,12.1,19.72c-1.37,19.1-2.72,21.06-14.53,21.06
	c-21.26,0-35.73,19.79-28.87,39.47c5.44,15.6,4.63,18.23-8.26,26.99l-11.87,8.07l-10.42-7.95c-17.09-13.03-41.36-9.16-45.49,7.27
	C600.72,770.91,596.79,772.85,575.56,768.31L575.56,768.31z M627.93,689.57c16.19-10.01,24.17-25.13,24.15-45.82
	c-0.02-28.17-17.04-48.47-45.09-53.77c-26.71-5.05-56.64,17.43-60.88,45.72c-2.82,18.83,7.91,42.41,24.22,53.22
	C585.13,698.73,612.61,699.04,627.93,689.57L627.93,689.57z"/>
<path id="path3356" class="st1" d="M296.42,865.89c-16.81-3.4-33.76-15.64-45.09-32.58c-8.58-12.82-9.64-17.13-9.64-39.26
	c0-21.93,1.13-26.65,9.6-39.99c13.57-21.4,31.88-32.66,55.95-34.4c33.21-2.4,59.55,12.41,74.63,41.99
	c8.03,15.75,8.62,47.77,1.14,62.62c-6.56,13.02-23.1,30.81-33.84,36.38C338.38,866.24,311.42,868.92,296.42,865.89L296.42,865.89z"
	/>
</svg>
