<?xml version="1.0" encoding="utf-8"?>
<!-- Generator: Adobe Illustrator 23.0.0, SVG Export Plug-In . SVG Version: 6.00 Build 0)  -->
<svg version="1.1" id="Слой_1" xmlns="http://www.w3.org/2000/svg" xmlns:xlink="http://www.w3.org/1999/xlink" x="0px" y="0px" width="31" height="37"
	 viewBox="0 0 435.22 523.34" style="enable-background:new 0 0 435.22 523.34;" xml:space="preserve">
<style type="text/css">
	.st0{fill:#FFFFFF;}
</style>
<path class="st0" d="M435.22,344.02c-1.08,7.14-1.67,14.4-3.3,21.39c-12.35,52.89-40.29,92.22-88.9,111.35
	c-39.36,15.49-79.26,14.73-116.45-7.16c-41.81-24.6-68.08-62.26-75.51-113.89c-9.62-66.78,23.56-129.35,79.07-158.73
	c12.77-6.76,25.99-12.8,40.19-14.18c27.76-2.71,55.23-1.45,81.07,11.88c15.89,8.19,29.33,19.83,42.03,32.78
	c25.32,25.82,37.4,58.08,41.25,94.55c0.1,0.9,0.36,1.78,0.54,2.66C435.22,331.11,435.22,337.57,435.22,344.02z M312.5,369.51
	c-7.45,0-14.54,0.13-21.63-0.05c-4.5-0.11-9-0.62-13.49-1.02c-2.2-0.2-3.1-1.63-3.21-3.94c-0.2-4.23,0.52-5.33,4.47-6.01
	c1.91-0.33,3.84-0.47,5.76-0.68c8.34-0.91,16.74-1.37,24.99-2.82c13.01-2.28,24.68-7.72,33.64-18.67
	c10.35-12.65,13-27.69,12.05-43.83c-1.32-22.28-15.39-39.69-35.54-44.76c-18.31-4.6-36.68-4.19-55.12-1.47
	c-6.34,0.93-12.83,1.45-18.46,5.47c-1.85,1.32-2.49,2.67-2.48,4.99c0.07,36.29,0.05,72.58,0.05,108.87c0,1.35,0,2.69,0,4.39
	c-1.94,0-3.53-0.01-5.12,0c-8.84,0.04-9.19,0.56-8.66,10.1c0.19,3.41,1.66,4.73,4.64,4.69c2.97-0.03,5.95-0.01,9.14-0.01
	c0,4.81-0.15,9.17,0.03,13.52c0.29,7,0.76,14,1.22,20.99c0.18,2.67,1.66,4.27,4.11,4.49c5.02,0.44,10.05,1.05,15.08,0.97
	c6.85-0.1,8-1.26,8.57-8.61c0.7-8.94,1.09-17.92,1.39-26.89c0.09-2.7,0.9-3.55,3.37-3.58c7.53-0.1,15.05-0.49,22.57-0.68
	c4.16-0.1,8.32-0.02,12.63-0.02C312.5,379.72,312.5,375.17,312.5,369.51z"/>
<path class="st0" d="M120.76,98.86c-22.94-0.1-51.13-3.53-78.4-13.43c-12.4-4.5-24.2-10.35-33.65-20.38
	c-2.77-2.94-5.02-6.59-6.91-10.27c-2.38-4.62-2.15-9.71,1.3-13.52C7.77,36.1,12.68,31,18.16,26.89
	c10.75-8.07,23.08-12.68,35.66-16.36C108.18-5.4,162.06-3.09,215.25,16.35c8.42,3.08,16.22,8.34,23.95,13.22
	c3.51,2.22,6.52,5.68,9.13,9.13c4.98,6.59,5,13.71,0.55,20.75c-3.81,6.03-9.05,10.44-14.72,14.27
	c-13.36,9.01-28.16,14.09-43.39,17.85C169.61,96.79,148.13,98.88,120.76,98.86z"/>
<path class="st0" d="M0.33,91.15c1.89,0.96,3.24,1.57,4.53,2.31c19.25,11.01,39.39,19.39,60.92,23.66
	c23.14,4.59,46.51,6.09,69.99,5.4c23.48-0.68,46.71-3.56,69.48-10.07c14.19-4.06,27.79-9.58,40.28-17.98
	c1.82-1.22,3.72-2.3,5.6-3.42c0.27-0.16,0.61-0.18,1.34-0.37c0.18,1.22,0.51,2.39,0.5,3.56c-0.11,12.77,0.04,25.56-0.55,38.31
	c-0.42,9.13-4.88,16.2-11.86,21.55c-12.87,9.85-27.43,15.5-42.36,20.51c-18.81,6.31-38.05,8.18-57.62,7.75
	c-17.09-0.37-34.22,0.15-51.27-0.97c-24.99-1.64-48.64-9.19-70.25-22.85c-6.47-4.09-11.79-10.27-17.56-15.59
	c-0.63-0.58-1.11-1.75-1.12-2.64C0.31,124.21,0.33,108.08,0.33,91.15z"/>
<path class="st0" d="M0.33,429.78c2.18,1.2,3.82,2.01,5.37,2.99c20.08,12.62,41.96,19.86,64.67,24.44
	c20.87,4.21,41.96,6.29,63.19,5.39c13.41-0.56,26.79-2.05,40.16-3.36c2.38-0.23,4.03,0.33,5.8,1.9
	c14.96,13.23,30.75,25.12,48.56,33.65c1.91,0.92,3.68,2.19,6.31,3.77c-3.21,1.8-5.57,3.33-8.07,4.49
	c-20.14,9.35-41.18,15.16-62.96,17.91c-26.29,3.32-52.57,3.18-78.79-0.67c-20.08-2.95-39.68-7.79-58.07-17.34
	c-9.97-5.18-18.12-12.7-25.09-21.78c-0.56-0.73-1.02-1.81-1.02-2.72C0.31,462.46,0.33,446.46,0.33,429.78z"/>
<path class="st0" d="M0.94,175.69c7.27,3.99,14.51,8.28,21.99,12c17.98,8.95,37.11,13.53,56.61,16.68c29,4.68,58.06,4.26,87.14,1.28
	c5.2-0.53,10.36-1.53,16.53-2.47c-1.47,2.09-2.41,3.61-3.52,4.97c-6.34,7.82-12.98,15.38-19.01,23.46
	c-7.69,10.29-13.41,21.92-18.58,33.84c-0.85,1.95-1.8,2.95-4.06,2.96c-20.33,0.06-40.63-0.06-60.74-3.89
	c-20.07-3.82-39.78-9.01-57.46-20.32c-5.62-3.6-10.52-8.66-15.25-13.6c-1.91-1.99-3.44-5.42-3.5-8.23
	C0.76,206.87,0.94,191.36,0.94,175.69z"/>
<path class="st0" d="M0.95,345.72c5.91,3.1,11.78,6.17,17.64,9.25c20.38,10.72,42.09,16.59,64.51,19.37
	c16.33,2.02,32.74,3.24,49.12,4.75c1.62,0.15,2.75,0.35,3.27,2.38c3.74,14.76,10.3,28.23,16.77,41.75
	c2.09,4.36,3.87,8.89,6.07,13.98c-3.57,0.27-6.41,0.62-9.25,0.69c-21.29,0.5-42.57,0.53-63.74-2.61
	c-19.75-2.93-39.12-7.4-57.3-16.54c-8.94-4.49-17.22-10.04-23.36-18.52c-1.71-2.36-3.5-5.45-3.56-8.24
	C0.77,376.72,0.95,361.43,0.95,345.72z"/>
<path class="st0" d="M129.21,352.91c-17.32,0.53-34.79,0.01-52.11-3.37c-18.13-3.55-35.78-8.74-52.31-17.71
	c-7.53-4.09-14.68-8.8-19.94-16.05c-1.72-2.37-3.57-5.38-3.69-8.19C0.5,292,0.34,276.37,0,260.09c1.75,0.9,2.82,1.35,3.8,1.96
	c21.84,13.77,45.35,22.59,70.41,26.25c15.74,2.3,31.62,3.56,47.43,5.23c3.51,0.37,7.05,0.56,10.18,0.8
	C130.96,313.87,130.09,333.2,129.21,352.91z"/>
<path class="st0" d="M273.25,331.48c0-5.16-0.07-10.09,0.01-15.03c0.23-13.93,0.57-27.85,0.73-41.78c0.03-2.39,0.71-3.38,2.91-3.93
	c10.67-2.65,21.18-1.66,31.45,1.85c9.91,3.39,16.17,13.27,15.91,24.4c-0.08,3.44-0.28,6.91-0.76,10.31
	c-1.6,11.31-7.43,18.81-17.77,22.15C299.17,331.58,280.85,332.79,273.25,331.48z"/>
</svg>
