<?xml version="1.0" encoding="utf-8"?>
<!-- Generator: Adobe Illustrator 23.0.0, SVG Export Plug-In . SVG Version: 6.00 Build 0)  -->
<svg version="1.1" id="svg3360" xmlns="http://www.w3.org/2000/svg" xmlns:xlink="http://www.w3.org/1999/xlink" x="0px" y="0px" width="37" height="37"
	 viewBox="0 0 246.78 264.88" style="enable-background:new 0 0 246.78 264.88;" xml:space="preserve">
<style type="text/css">
	.st0{fill:#FFFFFF;}
</style>
<path id="path3370" class="st0" d="M2.98,263.48C0.65,262.54,0,235.38,0,138.91C0,28.61,0.4,15.39,3.77,14.1
	c7.41-2.84,83.23-1.6,86.24,1.41c4.12,4.12,4.12,242.57,0,246.69c-2.01,2.01-14.83,2.8-43.46,2.67
	C24.22,264.77,4.61,264.14,2.98,263.48z M71.44,248.39c0-1.44-9.87-2.38-24.86-2.38c-14.01,0-25.5,1.04-26.33,2.38
	c-0.95,1.53,7.91,2.38,24.86,2.38C61.07,250.77,71.44,249.83,71.44,248.39z M56.07,223.49c6.89-6.89,7.43-13.23,1.68-19.88
	c-6.46-7.47-13.27-8.38-20.46-2.72c-9.52,7.49-8.57,19.6,2.01,25.6C46.39,230.52,49.62,229.95,56.07,223.49z M39.67,216.37
	c-2.29-5.96,0.96-11.16,6.47-10.37c3.61,0.52,5.05,2.42,5.05,6.67C51.2,219.61,42.04,222.55,39.67,216.37L39.67,216.37z
	 M71.44,116.23V48.37h-6.98c-4.89,0-7.44,1.43-8.49,4.76c-2.97,9.35-20.24,8.09-20.24-1.48c0-2.05-2.65-3.28-7.07-3.28h-7.07
	l-0.67,67.87l-0.67,67.87l25.6,0l25.6,0V116.23z M33.34,135.28c0-2.74,3.04-3.57,13.1-3.57s13.1,0.83,13.1,3.57
	s-3.04,3.57-13.1,3.57S33.34,138.02,33.34,135.28z M33.34,116.23c0-2.74,3.04-3.57,13.1-3.57s13.1,0.83,13.1,3.57
	s-3.04,3.57-13.1,3.57S33.34,118.97,33.34,116.23z M33.34,97.18c0-2.74,3.04-3.57,13.1-3.57s13.1,0.83,13.1,3.57
	s-3.04,3.57-13.1,3.57S33.34,99.92,33.34,97.18z M71.44,29.32c0-1.44-10.37-2.38-26.33-2.38c-16.95,0-25.81,0.85-24.86,2.38
	c0.83,1.34,12.33,2.38,26.33,2.38C61.56,31.7,71.44,30.75,71.44,29.32z M157.13,257.32c-4.79-11.11-62.22-230.82-61.1-233.74
	c0.64-1.68,14.4-6.51,30.56-10.74c16.16-4.23,34.38-9.13,40.5-10.89c8.55-2.47,11.97-2.56,14.84-0.42
	c2.34,1.75,14.85,44.38,33.66,114.71c16.46,61.55,30.38,113.52,30.94,115.49c0.56,1.96,0.2,4.87-0.8,6.45
	c-1.55,2.46-77.01,24.51-83.88,24.51C160.52,262.68,158.4,260.26,157.13,257.32L157.13,257.32z M203,238.85
	c12.15-3.19,20.84-6.71,20.84-8.44c0-2.17-5.96-1.39-22.03,2.89c-29.01,7.72-28.52,7.53-26.7,10.48c0.87,1.41,2.81,2.11,4.32,1.55
	C180.93,244.77,191.54,241.85,203,238.85L203,238.85z M200.63,213.27c6.99-7.82,6.21-18.19-1.78-23.42
	c-15.92-10.43-32.25,10.5-18.74,24.01C184.95,218.69,196.06,218.38,200.63,213.27L200.63,213.27z M186.09,208.18
	c-4.82-3.05-2.26-10.88,3.84-11.75c6.4-0.91,9.54,5.21,5.3,10.32C191.87,210.81,190.56,211.01,186.09,208.18z M185.73,174.38
	c11.13-2.89,20.6-5.55,21.03-5.91c0.8-0.65-32.94-127.68-34.34-129.32c-2.52-2.94-12.56,2.84-13.85,7.97
	c-1.97,7.86-11.83,10.48-18.09,4.82c-5.9-5.34-17.74-3.06-16.06,3.08c0.61,2.23,8.44,31.66,17.39,65.39
	c13.19,49.69,16.98,61.13,19.97,60.28C163.83,180.11,174.6,177.28,185.73,174.38L185.73,174.38z M157.16,131.06
	c0-3.11,15.37-8.88,23.68-8.88c5.66,0,2.01,6.65-4.35,7.92c-3.78,0.76-9.67,2.08-13.1,2.94
	C158.76,134.21,157.16,133.7,157.16,131.06z M152.4,111.87c0-3.19,20.87-9.36,24.37-7.2c3.91,2.42,1.44,4.97-7.38,7.61
	C157.35,115.89,152.4,115.77,152.4,111.87z M147.63,95.13c0-4.28,21.32-11.71,24.68-8.6c3.42,3.18-0.34,6.46-9.34,8.15
	c-4.69,0.88-10.06,2.19-11.93,2.91C148.97,98.37,147.63,97.4,147.63,95.13z M166.68,17.88c0-1.85-1.39-2.83-3.09-2.18
	c-1.7,0.65-11.61,3.51-22.03,6.35c-25.37,6.91-25.38,6.92-23.85,9.4C119.83,34.88,166.68,21.89,166.68,17.88z"/>
</svg>
