<?xml version="1.0" encoding="utf-8"?>
<!-- Generator: Adobe Illustrator 23.0.0, SVG Export Plug-In . SVG Version: 6.00 Build 0)  -->
<svg version="1.1" id="svg3385" xmlns="http://www.w3.org/2000/svg" xmlns:xlink="http://www.w3.org/1999/xlink" x="0px" y="0px" width="40" height="28"
	 viewBox="0 0 326.86 223.41" style="enable-background:new 0 0 326.86 223.41;" xml:space="preserve">
<style type="text/css">
	.st0{fill:#FFFFFF;}
</style>
<g>
	<path class="st0" d="M231.4,197.27c0.01,6.15-0.08,12.31,0.04,18.45c0.15,7.42-2.68,9.35-9.54,6.03
		c-17.94-8.68-36.79-14.01-56.85-14.54c-22.06-0.58-43.04,3.74-63.02,13.2c-11.13,5.27-12.55,4.22-12.61-8.35
		c-0.05-10.04-0.32-20.09,0.06-30.11c0.72-18.93,9.23-33.27,25.99-42.54c5.06-2.8,9.07-2.66,14.11,1.07
		c21.05,15.58,40.61,14.96,62.55-0.15c3.15-2.17,9.59-2.54,13.02-0.79c16.2,8.24,25,22,26.17,40.25
		C231.71,185.6,231.39,191.45,231.4,197.27z"/>
	<path class="st0" d="M326.85,202.27c-28.04-14.77-55.62-18.34-85.62-11.98c0.54-19.35-4.49-35.92-17.24-49.18
		c7.67-11.38,13.08-12.52,23.73-5.48c13.81,9.13,30.9,9.36,44.44-0.89c7.28-5.51,12.7-4.15,18.98,0.66
		c10.14,7.77,15.66,17.8,15.71,30.67C326.87,177.23,326.85,188.4,326.85,202.27z"/>
	<path class="st0" d="M100.56,137.39c-14.5,14.2-21.51,30.7-20.55,51.74C51.93,184.36,26,188.57,0.5,201.8
		c0-16.15-1.45-30.14,0.57-43.61c1.13-7.52,7.18-14.93,12.56-21.03c6.03-6.84,12.93-8.28,21.97-1.75c13.79,9.96,29.5,9.94,43.41-0.3
		C87.08,129.19,92.83,130.47,100.56,137.39z"/>
	<path class="st0" d="M160.39,64.93c21.2,0.09,37.97,17,37.95,38.27c-0.01,20.39-17.1,37.42-37.71,37.58
		c-20.44,0.16-37.77-16.9-37.92-37.32C122.55,82.16,139.49,64.84,160.39,64.93z"/>
	<path class="st0" d="M57.84,71.97c16.98,0.23,30.24,14.22,29.81,31.47c-0.4,16.29-14.48,29.85-30.85,29.74
		c-17.07-0.12-30.1-13.7-29.93-31.22C27.05,84.56,40.29,71.74,57.84,71.97z"/>
	<path class="st0" d="M299.8,102.63c-0.03,17.29-13.51,30.72-30.64,30.54c-16.29-0.17-30.25-14.22-30.19-30.38
		c0.07-17.47,13.09-30.48,30.56-30.54C287.31,72.18,299.83,84.75,299.8,102.63z"/>
	<path class="st0" d="M254.79,61.41c-8.53,10.95-15.12,19.66-22.06,28.1c-1.36,1.65-3.97,2.8-6.15,3.1
		c-2.81,0.38-5.81-0.78-8.64-0.49c-8.65,0.87-12.66-2.96-17.45-10.5c-6.38-10.04-16.74-17.55-25.74-26.49
		c6.17-9.2,10.12-10.18,21.04-3.65c9.95,5.95,20.05,5.69,30.5,1.24c4.68-1.99,11.04-5.82,14.29-4.17
		C246.84,51.72,251.44,58.18,254.79,61.41z"/>
	<path class="st0" d="M60.87,62.87c7.01-15.05,14.4-17.67,27.09-10.9c10.09,5.38,20.43,5.67,30.58,0.01
		c12.3-6.85,16.17-5.86,25.17,7.28c-13,6.76-22.8,16.39-27.86,30.58c-1.5,4.22-20.39,3.05-22.27-1.34
		C87.42,74.19,76.15,66.52,60.87,62.87z"/>
	<path class="st0" d="M102.1,48.29C87.89,47.8,78.67,37.47,79.26,22.71C79.8,9.28,90.67-0.57,104.29,0.03
		c13.94,0.61,23.59,11.45,22.96,25.79C126.66,39.27,116.02,48.77,102.1,48.29z"/>
	<path class="st0" d="M211.13,48.23c-13.6-0.11-23.39-10.34-23.18-24.23c0.21-14.3,10.48-24.27,24.68-23.96
		c13.35,0.29,23.56,10.95,23.45,24.49C235.97,38.6,225.71,48.34,211.13,48.23z"/>
</g>
</svg>
