<?xml version="1.0" encoding="utf-8"?>
<!-- Generator: Adobe Illustrator 23.0.0, SVG Export Plug-In . SVG Version: 6.00 Build 0)  -->
<svg version="1.1" id="Слой_1" xmlns="http://www.w3.org/2000/svg" xmlns:xlink="http://www.w3.org/1999/xlink" x="0px" y="0px" width="37" height="44"
	 viewBox="0 0 174.46 275.76" style="enable-background:new 0 0 174.46 275.76;" xml:space="preserve">
<style type="text/css">
	.st0{fill:#FFFFFF;}
</style>
<g>
	<path class="st0" d="M89.72-47.58c2.97,1.6,4.31,4.24,4.39,7.46c0.18,6.77,0.44,13.54,0.23,20.3c-0.13,4.11-3.04,6.7-7.18,7.32
		c-3.65,0.55-5.56-2.06-6.64-4.68c-3.45-8.4-3.67-17.12-0.6-25.64c0.7-1.94,3.29-3.19,5.01-4.76
		C86.52-47.58,88.12-47.58,89.72-47.58z"/>
	<path class="st0" d="M-48.68,71.62c1.83-4.11,5.13-5.52,9.39-4.98c6.57,0.83,13.2,1.42,19.69,2.72c4.77,0.95,6.18,3.69,5.71,8.09
		c-0.33,3.07-1.91,4.57-4.9,4.61c-6.1,0.07-12.2,0.16-18.29,0.06c-4.97-0.08-8.87-2.29-11.59-6.5
		C-48.68,74.28-48.68,72.95-48.68,71.62z"/>
	<path class="st0" d="M173.13,86.97c-0.63,25.81-8.66,47.52-26.77,64.87c-7,6.7-10.47,14.47-10.35,24.13
		c0.11,8.94,0.17,17.7,3.88,26.23c2.55,5.89,1.65,12.15-1.26,18.18c-1.2,2.49-1.59,5.97-0.93,8.65
		c2.97,12.01-1.49,21.06-13.13,25.44c-1.49,0.56-2.99,1.32-4.54,1.48c-4.33,0.45-6.74,3.16-8.95,6.54
		c-7.71,11.79-25,16.87-37.52,10.47c-9.61-4.91-14.09-14.02-15.74-24.2c-0.75-4.62-2.51-7.17-6.87-7.83
		c-10.51-1.59-14.1-9.55-16.66-18.21c-0.61-2.06,0.06-4.75,0.82-6.91c1.31-3.72,1.64-7.25-0.25-10.81
		c-4.08-7.72-4.14-15.27-0.26-23.29c4.84-10.02,1.75-19.35-4.59-27.6c-3.27-4.25-8-7.39-11.26-11.64
		C-22.58,88.62,8.07,12.27,75.18,2.32c45.23-6.71,90.85,25.31,97.01,73.73C172.69,80,172.88,84,173.13,86.97z M108.27,116.5
		c-0.16,1.45-0.35,2.35-0.34,3.24c0.05,18.67,0.1,37.33,0.21,56c0.01,1.98,0.28,3.99,0.68,5.94c0.62,3.01,6.56,6.54,9.4,5.53
		c0.83-0.29,1.75-1.35,1.95-2.21c0.47-2.06,0.55-4.2,0.74-6.32c0.43-4.77,0.46-9.6,1.31-14.29c1.52-8.39,6.36-15.1,11.81-21.43
		c5.21-6.05,11.09-11.73,15.19-18.47c8.81-14.47,10.17-30.69,8.18-47.17c-4.44-36.9-40.87-66.35-81.1-60.17
		c-27.65,4.25-46.83,20.13-56.7,45.99c-9.8,25.69-5.37,49.76,12.17,71.17c2.53,3.09,5.29,6,7.83,9.09
		c6.38,7.77,12.64,15.59,12.63,26.47c0,0.98,1.23,2.6,2.14,2.82c3.93,0.93,7.96,1.45,12.03,2.13c0-19.58,0-38.69,0-58.33
		c-2.66,0-5.06,0.24-7.4-0.05c-6.42-0.78-12.34-3.02-16.07-8.56c-4.76-7.08-2.18-19.83,4.47-24.14c9.2-5.95,19.58-4.17,24.96,4.94
		c2.07,3.51,2.73,7.93,3.65,12.02c0.47,2.11,0.08,4.42,0.08,6.84c7.44-0.39,14.32-0.76,21.35-1.13c0.51-4.27,1.15-8.2,1.41-12.17
		c0.72-10.94,16.23-18.4,26.69-10.55c5.94,4.46,8.89,11.97,7.07,18.67c-1.89,6.94-9.44,13.55-16.35,14.11
		C113.68,116.67,111.03,116.5,108.27,116.5z M76.12,116.81c0,20.01-0.02,39.57,0.07,59.13c0,0.9,0.85,2.4,1.59,2.6
		c4.09,1.13,8.23,2.25,12.42,2.8c5.5,0.72,6.66-0.06,6.83-5.49c0.63-19.41,0.95-38.82,1.36-58.24c0-0.21-0.25-0.43-0.48-0.79
		C90.87,116.81,83.74,116.81,76.12,116.81z M54.37,188.12c-0.07,0.3-0.13,0.59-0.2,0.89c-0.53-0.03-1.07-0.11-1.6-0.09
		c-2.58,0.08-5.26,0.08-5.92,3.41c-0.63,3.16,1.44,4.67,3.91,5.68c2.33,0.96,4.71,1.88,7.16,2.46c20.32,4.85,40.66,9.59,60.98,14.46
		c3.38,0.81,5.82,0,7.15-3.19c1.44-3.44-0.71-5.45-3.48-6.52c-4.95-1.92-9.95-3.85-15.1-5.07
		C89.68,195.97,72.01,192.11,54.37,188.12z M56.53,215.88c-0.04,0.19-0.08,0.37-0.12,0.56c-0.8,0-1.82-0.32-2.36,0.06
		c-1.82,1.28-3.93,2.55-4.94,4.38c-0.38,0.69,1.65,3.29,3.09,4.27c1.81,1.24,4.09,1.96,6.27,2.47c14.11,3.29,28.23,6.56,42.4,9.63
		c5.71,1.24,11.52,2.05,17.31,2.88c2.62,0.38,4.7-0.53,5.49-3.42c0.83-3.01-1.16-4.08-3.33-5c-1.59-0.67-3.21-1.32-4.87-1.76
		c-10.16-2.66-20.3-5.41-30.51-7.84C75.52,219.84,66.01,217.93,56.53,215.88z M111.62,107.32c6.25-0.07,13.07-4.88,12.95-9.15
		c-0.11-4-5.73-9.58-9.55-9.47c-4.12,0.12-9.19,7.35-9.2,13.13C105.83,105.54,107.75,107.36,111.62,107.32z M66.47,99.42
		c0.04-5.97-3.69-10.53-8.6-10.53c-3.95,0.01-9.6,5.59-9.5,9.39c0.09,3.59,6.59,8.61,11.22,8.67
		C64.62,107.01,66.43,105.03,66.47,99.42z M72.87,247.89c0.83,6.05,3.41,10.24,8.73,12.28c5.52,2.11,10.71,1.31,15.24-2.64
		c2.36-2.06,2.01-4-0.79-5.16C88.76,249.34,81.05,248.49,72.87,247.89z"/>
	<path class="st0" d="M-26.37,161.43c0.49-0.79,1.12-2.75,2.47-3.78c5.98-4.6,11.99-9.22,18.33-13.27c3.9-2.49,6.93-1.49,9.43,1.79
		c2.24,2.94,2.48,6.53-0.87,9.31c-6.29,5.22-13,10.02-19.94,14.34C-20.47,171.99-26.53,166.89-26.37,161.43z"/>
	<path class="st0" d="M179.94-8.15c-1.03,2.45-1.39,4.43-2.52,5.76c-4.52,5.36-9.15,10.66-14.02,15.71
		c-2.58,2.69-5.71,3.11-8.85,0.34c-3.62-3.2-4.77-6.22-2.07-9.7c4.69-6.05,9.84-11.8,15.27-17.2c1.38-1.37,5.05-1.99,6.73-1.13
		C176.78-13.2,178.19-10.28,179.94-8.15z"/>
	<path class="st0" d="M168.16,152.24c-0.11-6.45,3.84-9.84,8.64-8.24c8.22,2.74,15.15,7.61,20.6,14.37c2.25,2.79,2.94,5.96,0.11,9
		c-3.25,3.48-5.62,3.89-9.77,1.11c-5.28-3.54-10.53-7.17-15.53-11.1C170.26,155.85,169.04,153.4,168.16,152.24z"/>
	<path class="st0" d="M14.25,15.39c-1.06-0.54-3.09-1.01-4.27-2.28C5.1,7.88,0.35,2.52-4.11-3.07c-1.2-1.51-1.65-3.99-1.62-6.02
		c0.08-5.05,5.56-8.25,9.22-5C9.63-8.65,15.41-2.68,20.51,3.73C23.64,7.66,19.39,15.6,14.25,15.39z"/>
	<path class="st0" d="M209.2,66.8c1.99,0,4-0.14,5.97,0.03c3.08,0.26,5.91,1.21,6.43,4.79c0.53,3.63-0.61,6.98-4.24,8.11
		c-4.51,1.41-9.26,2.16-13.96,2.86c-2.87,0.43-5.83,0.32-8.76,0.3c-4.52-0.04-6.71-2-7.56-6.53c-0.65-3.46,0.81-6,5.25-7.14
		c5.49-1.41,11.16-2.11,16.75-3.12C209.13,66.33,209.16,66.56,209.2,66.8z"/>
	<path class="st0" d="M59.59,106.95"/>
</g>
</svg>
