<?xml version="1.0" encoding="utf-8"?>
<!-- Generator: Adobe Illustrator 23.0.0, SVG Export Plug-In . SVG Version: 6.00 Build 0)  -->
<svg version="1.1" id="Слой_1" xmlns="http://www.w3.org/2000/svg" xmlns:xlink="http://www.w3.org/1999/xlink" x="0px" y="0px" width="30" height="38"
	 viewBox="0 0 192.9 236.04" style="enable-background:new 0 0 192.9 236.04;" xml:space="preserve">
<style type="text/css">
	.st0{fill:#FFFFFF;}
</style>
<path class="st0" d="M0.12,26.09c-0.12,2.21-0.02,4.44-0.02,7c0.95,0,1.76,0,2.58,0c4.92,0.02,9.84-0.08,14.75,0.08
	c5.29,0.18,9.36,4.48,9.47,9.71c0.11,5.31-3.66,9.83-8.95,10.16c-4.97,0.31-9.98,0.16-14.97,0.2c-0.91,0.01-1.81,0-2.81,0
	c0,5.85,0,11.43,0,17.27c5.31,0,10.51-0.12,15.71,0.06c2,0.07,4.15,0.5,5.94,1.37c3.76,1.84,5.66,6.15,4.99,10.28
	c-0.68,4.18-4,7.71-8.24,8.18c-3.34,0.37-6.74,0.25-10.12,0.3c-2.68,0.04-5.36,0.01-8.21,0.01c0,5.72,0,11.28,0,17.19
	c0.69,0,1.42,0,2.16,0c4.76,0,9.53-0.07,14.29,0.03c5.85,0.12,10.18,4.43,10.22,10c0.04,5.69-4.3,10.07-10.26,10.19
	c-5.37,0.11-10.75,0.07-16.13,0.1c-0.06,0-0.12,0.09-0.32,0.24c0,5.45,0,11.01,0,16.87c3.96,0,7.85-0.02,11.74,0.01
	c2.07,0.02,4.16-0.05,6.21,0.22c5.43,0.71,9.04,5.17,8.74,10.61c-0.29,5.16-4.5,9.24-9.88,9.34c-5.52,0.1-11.04,0.02-16.75,0.02
	c0,5.78,0,11.4,0,17.27c2.43,0,4.79-0.01,7.16,0c3.23,0.01,6.46-0.11,9.68,0.08c5.94,0.36,9.95,4.69,9.81,10.33
	c-0.14,5.56-4.46,9.63-10.44,9.72c-4.61,0.07-9.22,0.02-13.83,0.02c-0.75,0-1.5,0-2.22,0c-2.95,18.97,9.99,32.07,24.99,33.03
	c0.77,0.05,1.54,0.05,2.3,0.05c45.86,0,91.72,0.01,137.59-0.01c12.43-0.01,22.63-7.15,26.26-18.6c0.91-2.87,1.33-6.02,1.33-9.04
	c0.07-60.23,0.08-120.45,0.04-180.68c-0.01-14.23-8.91-24.8-22.77-27.34c-0.29-0.05-0.54-0.24-0.82-0.37C120.79,0,72.23,0,23.67,0
	c-2.41,0.72-4.93,1.17-7.2,2.21C6.3,6.89,0.73,14.83,0.12,26.09z M50.15,152.76c1.8-8.14,6.59-14.43,12.59-19.9
	c5.87-5.36,12.65-9.15,20.26-11.47c0.49-0.15,0.96-0.35,0.97-0.35c-2.95-3.75-6.4-7.22-8.75-11.32c-5.29-9.24-6.58-18.97-1.13-28.7
	c6.23-11.14,19.64-15.88,31.61-11.38c11.92,4.48,18.69,16.89,16.06,29.74c-1.69,8.24-5.71,15.15-12.37,20.43
	c-0.29,0.23-0.56,0.5-1.14,1.01c1.08,0.35,1.92,0.61,2.75,0.89c12.6,4.31,22.72,11.78,29.09,23.66c1.56,2.9,2.2,6.32,3.04,9.56
	c0.7,2.75-0.55,5.04-3.02,6.07c-4.14,1.73-8.37,3.56-12.74,4.4c-10.24,1.97-20.53,2.81-30.83,2.77c-0.01,0.01-0.03,0.03-0.04,0.04
	c-0.01-0.01-0.03-0.03-0.04-0.04c-8.41-0.03-16.83-0.63-25.24-1.78c-4.68-0.64-9.26-2.06-13.87-3.18c-0.95-0.23-1.86-0.71-2.75-1.16
	C50.08,159.77,49.06,157.71,50.15,152.76z"/>
</svg>
