<?xml version="1.0" encoding="utf-8"?>
<!-- Generator: Adobe Illustrator 23.0.0, SVG Export Plug-In . SVG Version: 6.00 Build 0)  -->
<svg version="1.1" id="Слой_1" xmlns="http://www.w3.org/2000/svg" xmlns:xlink="http://www.w3.org/1999/xlink" x="0px" y="0px" width="34" height="41"
	 viewBox="0 0 113.73 138.48" style="enable-background:new 0 0 113.73 138.48;" xml:space="preserve">
<style type="text/css">
	.st0{fill:#FFFFFF;}
</style>
<g>
	<g>
		<path class="st0" d="M113.73,138.48c-3.61,0-8.62,0-12.66,0c0-15.25,0-29.76,0-45.51c-5.93-4.89-11.87-9.79-18.08-14.91
			c0-8.77,0-19.22,0-28.51c0.25-0.01,0.61-0.03,1.34,0.01c8.72,0,17.53-0.03,26.35,0.04c1.03,0.01,2.09-0.04,3.05-0.04"/>
		<path class="st0" d="M104.97,10.21c2.56,4.55,2.26,8.27-0.06,11.9c2.47,2.57,2.5,3.26,2.48,8.07c-0.94,5.31-3.5,8.25-6.63,7.31
			c-1-0.3,0.19,4.2,0.19,5.38c-1.5,3.56-10.06,4.25-12.06,0.26c0-1.29,0.13-3.51,0.13-4.95c-1.31,1.06-3.17,1.76-5.56,0.31
			c-2.2-1.34-3.13-3.06-3.08-5.89c-10.11,2.58-12.58-0.79-17.67-4.04c-5.99-6.56-6.46-8.11-5.88-13.59
			c0.07-0.65,1.07-3.03,0.92-2.71C61.86,3.5,67.86,2.73,70.08,1.9s1.29-0.49,5.43-1.26c4.14-0.76,8.07-1.2,16.07,0.84
			c3.5,1.07,6.74,2.42,9.47,4.83C102.66,7.75,104.12,9.35,104.97,10.21z"/>
	</g>
</g>
<g>
	<path class="st0" d="M62.89,93.25c-10.28-8.33-21.37-17.21-32.02-25.83c0,8.48,0,16.72,0,25.54C20.39,84.5,10.4,76.46,0,68.08
		c0,23.88,0,47.1,0,70.4c31.61,0,63.04,0,94.83,0c0-15.09,0-29.74,0-44.84c-10.43-8.51-21.08-17.19-32-26.09
		c0,8.31,0,16.28-0.01,24.25 M19.53,127.19H7.49v-12.04h12.04V127.19z M48.37,126.5H36.33v-12.04h12.04V126.5z M76.76,126.83H64.72
		v-12.04h12.04V126.83z"/>
</g>
</svg>
