<?xml version="1.0" encoding="utf-8"?>
<!-- Generator: Adobe Illustrator 23.0.0, SVG Export Plug-In . SVG Version: 6.00 Build 0)  -->
<svg version="1.1" id="Слой_1" xmlns="http://www.w3.org/2000/svg" xmlns:xlink="http://www.w3.org/1999/xlink" x="0px" y="0px" width="31" height="45"
	 viewBox="0 0 108.98 152.02" style="enable-background:new 0 0 108.98 152.02;" xml:space="preserve">
<style type="text/css">
	.st0{fill:#FFFFFF;stroke:#FFFFFF;stroke-miterlimit:10;}
</style>
<g>
	<path class="st0" d="M108.98,152.26c-8.27,0-16.53,0-24.8,0c0-32.58,0-65.16,0-98.02c8.53,0,16.97,0,24.8,0"/>
	<path class="st0" d="M104.99,0l-1.59,35.08c-0.17,0.04-0.15,0.03-0.32,0.07c-2.12-3.84-4.15-7.51-6.68-12.1
		c-1.29,1.87-2.42,3.4-3.42,5C82.33,45.15,68.57,58.92,50.48,68.1C35.25,75.82,19.1,78.82,2.12,77.76c-0.4-0.02-0.81-0.06-1.18-0.18
		C0.73,77.51,0.57,77.26,0,76.74c2.65-2.04,5.23-4.03,7.82-6c1.8-1.37,3.67-2.65,5.45-4.06c6.16-4.86,6.26-5.62,2.05-12.28
		c-0.61-0.97-1.04-2.06-1.92-3.81c2.34-0.34,4.1-0.81,5.85-0.81c27.54,0,49.05-13.17,68.38-31.17c1.85-1.73,1.89-3.31,0.3-5.15
		c-1.56-1.8-3.06-3.64-5.26-6.25L104.99,0C104.99,0,104.99,0,104.99,0z M67.27,53.15c-0.22-0.38-0.43-0.75-0.65-1.13
		c-1.82,0.73-3.68,1.37-5.45,2.2c-9.8,4.55-19.82,8.29-30.67,9.59c-5.89,0.7-10.9,3.5-15.47,8.74
		C35.55,72.47,51.68,63.52,67.27,53.15z"/>
	<path class="st0" d="M50.58,152.26c0-25.4,0-50.81,0-76.56c8.53,0,16.01,0,23.89,0c0.3,25.54,0.61,51.05,0.91,76.56
		C67.11,152.26,58.84,152.26,50.58,152.26z"/>
	<path class="st0" d="M16.35,152.02c0-25.4,0.04-25.14,0.04-50.89c8.53,0,16.92,0,24.8,0c0.3,25.54-0.35,25.38-0.04,50.89
		C32.88,152.02,24.61,152.02,16.35,152.02z"/>
</g>
</svg>
