<?xml version="1.0" encoding="utf-8"?>
<!-- Generator: Adobe Illustrator 23.0.0, SVG Export Plug-In . SVG Version: 6.00 Build 0)  -->
<svg version="1.1" id="svg3348" xmlns="http://www.w3.org/2000/svg" xmlns:xlink="http://www.w3.org/1999/xlink" x="0px" y="0px" width="45" height="45"
	 viewBox="0 0 339.58 339.18" style="enable-background:new 0 0 339.58 339.18;" xml:space="preserve">
<style type="text/css">
	.st0{fill:#FFFFFF;}
</style>
<path id="path3358" class="st0" d="M219.14,339.06c-10.2-1.8-13.09-9.33-8-20.84c3.32-7.5,3.28-11.65-0.13-14.33
	c-2.49-1.96-3.88-2.07-26-2.07h-23.37l-0.06-21.25c-0.06-23.28-0.75-27.24-5.18-29.71c-2.49-1.39-3.16-1.37-7.5,0.3
	c-11.52,4.43-12.83,4.78-15.87,4.21c-6.87-1.29-10.79-8.94-8.5-16.59c2.41-8.06,10.19-10.15,20.26-5.47
	c8.94,4.16,14.03,3.11,15.8-3.25c0.57-2.06,1.04-13.3,1.04-24.99l0.01-21.25l22.25,0.02c12.24,0.01,22.89,0.42,23.67,0.92
	c1.19,0.75,0.97,1.92-1.36,7.11c-3.71,8.27-4.24,12.9-2.11,18.48c2.6,6.81,7.19,9.83,15.66,10.31c5.94,0.34,7.4,0.05,11.23-2.19
	c8.26-4.84,10.17-14.29,5.15-25.47c-1.51-3.36-2.47-6.79-2.15-7.64c0.51-1.32,3.79-1.54,23.2-1.54h22.61l-0.33,22.45
	c-0.21,14.38-0.72,22.84-1.42,23.54c-0.78,0.78-3.22,0.23-8.67-1.95c-9.08-3.64-13.01-3.79-18.79-0.73
	c-10.75,5.68-12.09,22.95-2.37,30.59c5.87,4.62,13.22,4.61,22.77-0.03c2.43-1.18,5.12-1.89,5.96-1.56
	c2.26,0.87,2.81,6.97,2.48,27.21l-0.3,18l-23.22,0.5c-22.34,0.48-23.31,0.58-25.45,2.73c-2.91,2.91-2.74,7.22,0.57,14.27
	c3.33,7.09,3.36,11.94,0.12,15.8C228.65,337.6,222.9,339.73,219.14,339.06L219.14,339.06z M37.44,277.73l-0.3-23.09l-2.81-2.41
	c-3.64-3.13-5.42-3.04-13.93,0.69c-8.57,3.76-12.87,3.5-16.96-1.03c-3.39-3.76-4.3-8.46-2.61-13.48c2.7-8.05,10.02-9.94,20.29-5.23
	c8.87,4.06,13.38,3.33,15.41-2.49c0.68-1.94,1.11-11.65,1.11-25.02v-21.85l20.75-0.01c11.41,0,22.43-0.47,24.49-1.04
	c6.37-1.77,7.46-7.11,3.27-16.1c-4.25-9.12-3.01-15.99,3.5-19.36c5.74-2.97,13.97-1.21,17.43,3.72c2.3,3.28,1.92,7.74-1.36,15.96
	c-3.18,7.99-3.15,11.54,0.13,14.52c1.79,1.62,4.52,1.84,25.89,2.14l23.9,0.33v22.3c0,16.63-0.32,22.55-1.25,23.31
	c-0.88,0.71-3.34,0.14-8.25-1.9c-15.71-6.54-27.64,0.2-27.64,15.62c0,5.68,1.04,8.52,4.52,12.36c5.5,6.07,12.96,6.94,22.97,2.68
	c3.6-1.53,7.25-2.52,8.1-2.19c1.34,0.51,1.55,3.63,1.55,22.63v22.03H132.6c-19.79,0-23.11-0.22-23.62-1.54
	c-0.32-0.84,0.7-4.33,2.27-7.75c5.31-11.55,2.98-21.25-6.18-25.73c-9.61-4.69-21.19-1.25-25.46,7.58c-2.7,5.57-2.3,10.29,1.57,18.75
	c1.45,3.17,2.39,6.43,2.08,7.23c-0.47,1.22-4.25,1.46-23.04,1.46H37.74L37.44,277.73L37.44,277.73z M37.65,156.07
	c0.01-11.96,0.43-22.41,0.95-23.22c0.8-1.26,1.68-1.14,6.23,0.88c9.13,4.05,13.9,4.71,19.22,2.68c10.4-3.97,14.17-16.99,7.97-27.52
	c-4.57-7.76-14.18-9.51-25.16-4.59c-3.39,1.52-6.85,2.5-7.69,2.17c-1.32-0.51-1.54-3.83-1.54-23.57V59.92l23.97-0.3
	c23.26-0.29,24.04-0.37,26.2-2.53c2.91-2.91,2.74-7.22-0.57-14.27c-1.42-3.03-2.58-7.15-2.59-9.17
	c-0.02-7.15,8.39-13.06,15.55-10.92c5.45,1.63,6.51,2.32,7.98,5.16c2.13,4.12,1.8,9.01-1.03,15.08c-3.12,6.69-3.26,11.86-0.41,14.44
	c1.92,1.74,4.14,1.93,25.5,2.21l23.4,0.3v23.39c0,23.25,0.01,23.41,2.4,26.18c3.08,3.58,7.92,3.56,15.6-0.06
	c6.02-2.84,9.56-3.23,13.44-1.46c7.38,3.36,8.51,16.6,1.85,21.83c-3.55,2.79-9.82,2.61-16.44-0.47c-6.42-2.99-10.8-3.18-13.99-0.6
	c-2.34,1.9-2.36,2.08-2.66,25.5l-0.3,23.59l-22.2-0.02c-12.21-0.01-22.87-0.44-23.68-0.96c-1.28-0.81-1.3-1.39-0.12-4.23
	c5.75-13.91,6.08-18.58,1.77-24.97c-3.39-5.03-8.17-7.32-15.16-7.28c-7.08,0.04-11.27,1.98-15.07,6.96
	c-4.14,5.42-4.26,10.58-0.48,20.03c2.97,7.42,3.06,7.99,1.42,9.19c-1.29,0.94-7.33,1.28-23.06,1.28H37.64L37.65,156.07L37.65,156.07
	z M288.74,163.26c-3.18-2.68-5.09-7.63-5.1-13.22c-0.01-7.61-4.85-13.23-10.23-11.88c-1.31,0.33-11.06,5.59-21.68,11.68
	c-10.62,6.1-19.52,10.88-19.77,10.63c-1.41-1.41-21.32-37.22-21.32-38.35c0-1.81,4.17-3.3,9.32-3.33
	c7.58-0.04,15.21-4.93,17.62-11.29c5.03-13.28-8.75-28.86-21.75-24.58c-5.26,1.73-8.81,4.63-12.27,10.02
	c-2.53,3.95-4.65,5.88-6.43,5.88c-0.52,0-8.38-12.88-16.44-26.92c-5.75-10.03-6.88-12.66-5.84-13.64
	c2.4-2.26,35.12-20.52,37.14-20.73c2.31-0.24,3.39,2.49,3.55,8.92c0.12,5.07,2.1,10.01,5.47,13.64
	c11.24,12.13,34.38-0.35,30.69-16.54c-1.22-5.36-3.17-7.93-10.03-13.2c-3.32-2.55-6.03-4.99-6.03-5.41c0-1.71,5.34-5.28,22.2-14.87
	L275.54,0l10.75,18.66c5.91,10.26,11.97,19.9,13.47,21.41c4.9,4.96,8.28,3.48,17.14-7.51c5.03-6.23,9.95-7.86,15.31-5.08
	c6.5,3.37,9.27,11.86,5.95,18.26c-1.64,3.18-7.74,6.07-12.81,6.08c-4.56,0.01-10.28,1.75-11.82,3.6c-2.96,3.57-1.36,8.12,9.55,27.04
	c5.86,10.17,10.51,18.94,10.33,19.48c-0.18,0.55-8.2,5.52-17.81,11.05c-9.61,5.53-18.48,10.97-19.71,12.1
	c-5.27,4.82-3.68,9.72,5.28,16.3c5.93,4.36,8.45,7.99,8.45,12.18c0,3.24-3.3,8.05-6.92,10.09
	C297.46,166.61,292.56,166.47,288.74,163.26L288.74,163.26z"/>
</svg>
