<?xml version="1.0" encoding="utf-8"?>
<!-- Generator: Adobe Illustrator 23.0.0, SVG Export Plug-In . SVG Version: 6.00 Build 0)  -->
<svg version="1.1" id="Слой_1" xmlns="http://www.w3.org/2000/svg" xmlns:xlink="http://www.w3.org/1999/xlink" x="0px" y="0px"
	 viewBox="0 0 20 20" style="enable-background:new 0 0 20 20;" xml:space="preserve" fill="#ffffff" width="22" height="22">
<path class="st0" d="M19.28,17.48c-0.11-0.13-0.23-0.25-0.35-0.37c-1.48-1.49-2.97-2.97-4.46-4.45c-0.17-0.17-0.19-0.29-0.05-0.49
	c0.83-1.25,1.23-2.64,1.25-4.3c0.01-0.2-0.03-0.55-0.08-0.9c-0.57-4.18-4.47-7.14-8.63-6.54c-4.19,0.6-7.1,4.44-6.53,8.62
	c0.74,5.49,6.95,8.39,11.65,5.44c0.37-0.23,0.37-0.23,0.68,0.07c1.57,1.57,3.14,3.14,4.72,4.7c0.54,0.53,1.27,0.5,1.78-0.01
	C19.77,18.74,19.77,18.03,19.28,17.48z M8,13.86c-3.23,0-5.85-2.63-5.85-5.86c0-3.23,2.62-5.85,5.85-5.85
	c3.23,0,5.85,2.63,5.85,5.85C13.86,11.24,11.23,13.86,8,13.86z"/>
</svg>
